<mxfile host="www.draw.io" modified="2019-11-21T01:17:17.804Z" agent="Mozilla/5.0 (Macintosh; Intel Mac OS X 10_13_6) AppleWebKit/537.36 (KHTML, like Gecko) Chrome/71.0.3578.98 Safari/537.36" etag="ULKGRM1iglSmKVs_I9be" version="12.2.7" type="github" pages="3">
  <diagram name="amer" id="3icEu7I5XqVcEI4lYJHm">
    <mxGraphModel dx="2636" dy="1753" grid="1" gridSize="10" guides="1" tooltips="1" connect="1" arrows="1" fold="1" page="1" pageScale="1" pageWidth="850" pageHeight="1100" math="0" shadow="0">
      <root>
        <mxCell id="0"/>
        <mxCell id="1" parent="0"/>
        <mxCell id="CGBd2wxsoKawMv2vk4Lg-112" value="" style="rounded=0;whiteSpace=wrap;html=1;fillColor=#d5e8d4;strokeColor=#4D9900;" parent="1" vertex="1">
          <mxGeometry x="-1180" y="-310" width="640" height="290" as="geometry"/>
        </mxCell>
        <mxCell id="V_cC2gT6HBl9BK8JK8mR-5" value="" style="edgeStyle=orthogonalEdgeStyle;rounded=0;orthogonalLoop=1;jettySize=auto;html=1;entryX=0.626;entryY=1.021;entryDx=0;entryDy=0;entryPerimeter=0;exitX=0.623;exitY=0.001;exitDx=0;exitDy=0;exitPerimeter=0;" parent="1" source="V_cC2gT6HBl9BK8JK8mR-1" target="V_cC2gT6HBl9BK8JK8mR-4" edge="1">
          <mxGeometry relative="1" as="geometry">
            <mxPoint x="-460" y="280" as="sourcePoint"/>
          </mxGeometry>
        </mxCell>
        <mxCell id="TWL4DVWHpw3BuLWVAcTx-16" value="orders" style="text;html=1;resizable=0;points=[];align=center;verticalAlign=middle;labelBackgroundColor=#ffffff;" parent="V_cC2gT6HBl9BK8JK8mR-5" vertex="1" connectable="0">
          <mxGeometry x="0.1584" y="1" relative="1" as="geometry">
            <mxPoint as="offset"/>
          </mxGeometry>
        </mxCell>
        <mxCell id="CGBd2wxsoKawMv2vk4Lg-45" style="edgeStyle=orthogonalEdgeStyle;rounded=0;orthogonalLoop=1;jettySize=auto;html=1;entryX=1;entryY=0.75;entryDx=0;entryDy=0;" parent="1" target="MaIgf1kPmnHuQDMeoxbi-1" edge="1">
          <mxGeometry relative="1" as="geometry">
            <Array as="points">
              <mxPoint x="-638" y="734"/>
              <mxPoint x="-638" y="940"/>
            </Array>
            <mxPoint x="-570" y="734" as="sourcePoint"/>
          </mxGeometry>
        </mxCell>
        <mxCell id="CGBd2wxsoKawMv2vk4Lg-48" style="edgeStyle=orthogonalEdgeStyle;rounded=0;orthogonalLoop=1;jettySize=auto;html=1;entryX=1;entryY=0.5;entryDx=0;entryDy=0;strokeWidth=1;exitX=0.25;exitY=1;exitDx=0;exitDy=0;" parent="1" source="V_cC2gT6HBl9BK8JK8mR-1" target="MaIgf1kPmnHuQDMeoxbi-3" edge="1">
          <mxGeometry relative="1" as="geometry"/>
        </mxCell>
        <mxCell id="CGBd2wxsoKawMv2vk4Lg-49" style="edgeStyle=orthogonalEdgeStyle;rounded=0;orthogonalLoop=1;jettySize=auto;html=1;entryX=1;entryY=0.5;entryDx=0;entryDy=0;strokeWidth=1;exitX=0;exitY=0.94;exitDx=0;exitDy=0;exitPerimeter=0;" parent="1" source="V_cC2gT6HBl9BK8JK8mR-1" target="V_cC2gT6HBl9BK8JK8mR-85" edge="1">
          <mxGeometry relative="1" as="geometry"/>
        </mxCell>
        <mxCell id="CGBd2wxsoKawMv2vk4Lg-50" style="edgeStyle=orthogonalEdgeStyle;rounded=0;orthogonalLoop=1;jettySize=auto;html=1;strokeWidth=1;" parent="1" edge="1">
          <mxGeometry relative="1" as="geometry">
            <mxPoint x="-570" y="696" as="sourcePoint"/>
            <mxPoint x="-736" y="770" as="targetPoint"/>
            <Array as="points">
              <mxPoint x="-700" y="696"/>
              <mxPoint x="-700" y="770"/>
            </Array>
          </mxGeometry>
        </mxCell>
        <mxCell id="CGBd2wxsoKawMv2vk4Lg-51" style="edgeStyle=orthogonalEdgeStyle;rounded=0;orthogonalLoop=1;jettySize=auto;html=1;entryX=1;entryY=0.5;entryDx=0;entryDy=0;strokeWidth=1;" parent="1" target="N_9rhiI7Wwjrm_V3X6SH-1" edge="1">
          <mxGeometry relative="1" as="geometry">
            <mxPoint x="-570" y="650" as="sourcePoint"/>
          </mxGeometry>
        </mxCell>
        <mxCell id="CGBd2wxsoKawMv2vk4Lg-52" style="edgeStyle=orthogonalEdgeStyle;rounded=0;orthogonalLoop=1;jettySize=auto;html=1;entryX=0.5;entryY=1;entryDx=0;entryDy=0;strokeWidth=1;exitX=0;exitY=0.115;exitDx=0;exitDy=0;exitPerimeter=0;" parent="1" source="V_cC2gT6HBl9BK8JK8mR-1" target="V_cC2gT6HBl9BK8JK8mR-66" edge="1">
          <mxGeometry relative="1" as="geometry"/>
        </mxCell>
        <mxCell id="CGBd2wxsoKawMv2vk4Lg-71" value="account token" style="text;html=1;resizable=0;points=[];align=center;verticalAlign=middle;labelBackgroundColor=#ffffff;" parent="CGBd2wxsoKawMv2vk4Lg-52" vertex="1" connectable="0">
          <mxGeometry x="0.4226" relative="1" as="geometry">
            <mxPoint y="-46.5" as="offset"/>
          </mxGeometry>
        </mxCell>
        <mxCell id="CGBd2wxsoKawMv2vk4Lg-53" style="edgeStyle=orthogonalEdgeStyle;rounded=0;orthogonalLoop=1;jettySize=auto;html=1;entryX=0.5;entryY=0;entryDx=0;entryDy=0;strokeWidth=1;exitX=0.992;exitY=0.72;exitDx=0;exitDy=0;exitPerimeter=0;" parent="1" source="V_cC2gT6HBl9BK8JK8mR-1" target="u5Q9tlcLcI0Oim-ChqrU-1" edge="1">
          <mxGeometry relative="1" as="geometry"/>
        </mxCell>
        <mxCell id="CGBd2wxsoKawMv2vk4Lg-54" style="edgeStyle=orthogonalEdgeStyle;rounded=0;orthogonalLoop=1;jettySize=auto;html=1;entryX=0;entryY=0.5;entryDx=0;entryDy=0;strokeWidth=1;" parent="1" source="V_cC2gT6HBl9BK8JK8mR-1" target="TWL4DVWHpw3BuLWVAcTx-10" edge="1">
          <mxGeometry relative="1" as="geometry"/>
        </mxCell>
        <mxCell id="CGBd2wxsoKawMv2vk4Lg-55" value="item &lt;br&gt;master" style="text;html=1;resizable=0;points=[];align=center;verticalAlign=middle;labelBackgroundColor=#ffffff;" parent="CGBd2wxsoKawMv2vk4Lg-54" vertex="1" connectable="0">
          <mxGeometry x="-0.4343" y="-3" relative="1" as="geometry">
            <mxPoint x="49.5" y="-3" as="offset"/>
          </mxGeometry>
        </mxCell>
        <mxCell id="CGBd2wxsoKawMv2vk4Lg-67" style="edgeStyle=orthogonalEdgeStyle;rounded=0;orthogonalLoop=1;jettySize=auto;html=1;strokeWidth=1;exitX=1.008;exitY=0.948;exitDx=0;exitDy=0;exitPerimeter=0;" parent="1" source="V_cC2gT6HBl9BK8JK8mR-1" target="9Npi8_EjcijGg6YAnJOB-1" edge="1">
          <mxGeometry relative="1" as="geometry"/>
        </mxCell>
        <mxCell id="CGBd2wxsoKawMv2vk4Lg-70" style="edgeStyle=orthogonalEdgeStyle;rounded=0;orthogonalLoop=1;jettySize=auto;html=1;strokeWidth=1;entryX=0.25;entryY=1;entryDx=0;entryDy=0;" parent="1" source="V_cC2gT6HBl9BK8JK8mR-1" target="V_cC2gT6HBl9BK8JK8mR-56" edge="1">
          <mxGeometry relative="1" as="geometry">
            <mxPoint x="-920" y="-39.99999999999977" as="targetPoint"/>
            <Array as="points">
              <mxPoint x="-927" y="300"/>
            </Array>
          </mxGeometry>
        </mxCell>
        <mxCell id="CGBd2wxsoKawMv2vk4Lg-72" value="account&lt;br&gt;token" style="text;html=1;resizable=0;points=[];align=center;verticalAlign=middle;labelBackgroundColor=#ffffff;" parent="CGBd2wxsoKawMv2vk4Lg-70" vertex="1" connectable="0">
          <mxGeometry x="0.7333" y="-6" relative="1" as="geometry">
            <mxPoint x="-9" y="-4.5" as="offset"/>
          </mxGeometry>
        </mxCell>
        <mxCell id="CGBd2wxsoKawMv2vk4Lg-81" style="edgeStyle=orthogonalEdgeStyle;rounded=0;orthogonalLoop=1;jettySize=auto;html=1;entryX=0;entryY=0.5;entryDx=0;entryDy=0;strokeWidth=1;exitX=1.006;exitY=0.33;exitDx=0;exitDy=0;exitPerimeter=0;" parent="1" source="V_cC2gT6HBl9BK8JK8mR-1" target="V_cC2gT6HBl9BK8JK8mR-78" edge="1">
          <mxGeometry relative="1" as="geometry"/>
        </mxCell>
        <mxCell id="CGBd2wxsoKawMv2vk4Lg-82" style="edgeStyle=orthogonalEdgeStyle;rounded=0;orthogonalLoop=1;jettySize=auto;html=1;entryX=0.25;entryY=1;entryDx=0;entryDy=0;strokeWidth=1;exitX=0.994;exitY=0.051;exitDx=0;exitDy=0;exitPerimeter=0;" parent="1" source="V_cC2gT6HBl9BK8JK8mR-1" target="V_cC2gT6HBl9BK8JK8mR-6" edge="1">
          <mxGeometry relative="1" as="geometry"/>
        </mxCell>
        <mxCell id="CGBd2wxsoKawMv2vk4Lg-83" value="real time&lt;br&gt;inventory&lt;br&gt;check" style="text;html=1;resizable=0;points=[];align=center;verticalAlign=middle;labelBackgroundColor=#ffffff;" parent="CGBd2wxsoKawMv2vk4Lg-82" vertex="1" connectable="0">
          <mxGeometry x="0.7246" y="-1" relative="1" as="geometry">
            <mxPoint x="-61.5" y="59" as="offset"/>
          </mxGeometry>
        </mxCell>
        <mxCell id="CGBd2wxsoKawMv2vk4Lg-84" style="edgeStyle=orthogonalEdgeStyle;rounded=0;orthogonalLoop=1;jettySize=auto;html=1;strokeWidth=1;exitX=1;exitY=0.14;exitDx=0;exitDy=0;exitPerimeter=0;entryX=0.444;entryY=0.992;entryDx=0;entryDy=0;entryPerimeter=0;" parent="1" source="V_cC2gT6HBl9BK8JK8mR-1" target="V_cC2gT6HBl9BK8JK8mR-6" edge="1">
          <mxGeometry relative="1" as="geometry"/>
        </mxCell>
        <mxCell id="CGBd2wxsoKawMv2vk4Lg-85" value="order&lt;br&gt;history" style="text;html=1;resizable=0;points=[];align=center;verticalAlign=middle;labelBackgroundColor=#ffffff;" parent="CGBd2wxsoKawMv2vk4Lg-84" vertex="1" connectable="0">
          <mxGeometry x="0.2953" y="45" relative="1" as="geometry">
            <mxPoint x="45" y="-45" as="offset"/>
          </mxGeometry>
        </mxCell>
        <mxCell id="CGBd2wxsoKawMv2vk4Lg-86" style="edgeStyle=orthogonalEdgeStyle;rounded=0;orthogonalLoop=1;jettySize=auto;html=1;strokeWidth=1;exitX=1;exitY=0.194;exitDx=0;exitDy=0;exitPerimeter=0;" parent="1" source="V_cC2gT6HBl9BK8JK8mR-1" edge="1">
          <mxGeometry relative="1" as="geometry">
            <mxPoint x="-112" y="210" as="targetPoint"/>
          </mxGeometry>
        </mxCell>
        <mxCell id="CGBd2wxsoKawMv2vk4Lg-87" value="order&lt;br&gt;detail" style="text;html=1;resizable=0;points=[];align=center;verticalAlign=middle;labelBackgroundColor=#ffffff;" parent="CGBd2wxsoKawMv2vk4Lg-86" vertex="1" connectable="0">
          <mxGeometry x="-0.3126" relative="1" as="geometry">
            <mxPoint as="offset"/>
          </mxGeometry>
        </mxCell>
        <mxCell id="CGBd2wxsoKawMv2vk4Lg-92" style="edgeStyle=orthogonalEdgeStyle;rounded=0;orthogonalLoop=1;jettySize=auto;html=1;entryX=1;entryY=0.5;entryDx=0;entryDy=0;strokeWidth=1;" parent="1" source="V_cC2gT6HBl9BK8JK8mR-1" target="V_cC2gT6HBl9BK8JK8mR-39" edge="1">
          <mxGeometry relative="1" as="geometry">
            <mxPoint x="-569" y="371" as="sourcePoint"/>
            <Array as="points">
              <mxPoint x="-850" y="516"/>
              <mxPoint x="-850" y="556"/>
            </Array>
          </mxGeometry>
        </mxCell>
        <mxCell id="CGBd2wxsoKawMv2vk4Lg-96" style="edgeStyle=orthogonalEdgeStyle;rounded=0;orthogonalLoop=1;jettySize=auto;html=1;entryX=0;entryY=0.75;entryDx=0;entryDy=0;strokeWidth=1;exitX=0.952;exitY=1;exitDx=0;exitDy=0;exitPerimeter=0;" parent="1" source="V_cC2gT6HBl9BK8JK8mR-1" target="CGBd2wxsoKawMv2vk4Lg-11" edge="1">
          <mxGeometry relative="1" as="geometry">
            <Array as="points">
              <mxPoint x="-370" y="877"/>
            </Array>
          </mxGeometry>
        </mxCell>
        <mxCell id="R9zYxcOd8RueL_nEJfBi-4" value="order confirmation" style="text;html=1;resizable=0;points=[];align=center;verticalAlign=middle;labelBackgroundColor=#ffffff;" parent="CGBd2wxsoKawMv2vk4Lg-96" vertex="1" connectable="0">
          <mxGeometry x="0.2894" y="-2" relative="1" as="geometry">
            <mxPoint as="offset"/>
          </mxGeometry>
        </mxCell>
        <mxCell id="CGBd2wxsoKawMv2vk4Lg-101" style="edgeStyle=orthogonalEdgeStyle;rounded=0;orthogonalLoop=1;jettySize=auto;html=1;strokeWidth=1;exitX=0.467;exitY=0.998;exitDx=0;exitDy=0;exitPerimeter=0;" parent="1" source="V_cC2gT6HBl9BK8JK8mR-1" target="V_cC2gT6HBl9BK8JK8mR-41" edge="1">
          <mxGeometry relative="1" as="geometry">
            <Array as="points">
              <mxPoint x="-460" y="749"/>
            </Array>
          </mxGeometry>
        </mxCell>
        <mxCell id="CGBd2wxsoKawMv2vk4Lg-102" value="email&lt;br&gt;signup" style="text;html=1;resizable=0;points=[];align=center;verticalAlign=middle;labelBackgroundColor=#ffffff;" parent="CGBd2wxsoKawMv2vk4Lg-101" vertex="1" connectable="0">
          <mxGeometry x="0.1723" y="-1" relative="1" as="geometry">
            <mxPoint y="1" as="offset"/>
          </mxGeometry>
        </mxCell>
        <mxCell id="CGBd2wxsoKawMv2vk4Lg-103" value="wishlist" style="edgeStyle=orthogonalEdgeStyle;rounded=0;orthogonalLoop=1;jettySize=auto;html=1;entryX=0.562;entryY=0.014;entryDx=0;entryDy=0;entryPerimeter=0;strokeWidth=1;" parent="1" target="V_cC2gT6HBl9BK8JK8mR-41" edge="1">
          <mxGeometry x="0.4242" relative="1" as="geometry">
            <mxPoint x="-440" y="751" as="sourcePoint"/>
            <Array as="points">
              <mxPoint x="-440" y="751"/>
              <mxPoint x="-440" y="1031"/>
              <mxPoint x="-398" y="1031"/>
            </Array>
            <mxPoint as="offset"/>
          </mxGeometry>
        </mxCell>
        <mxCell id="R9zYxcOd8RueL_nEJfBi-2" style="edgeStyle=orthogonalEdgeStyle;rounded=0;orthogonalLoop=1;jettySize=auto;html=1;entryX=1;entryY=0.5;entryDx=0;entryDy=0;exitX=0.001;exitY=0.394;exitDx=0;exitDy=0;exitPerimeter=0;" parent="1" source="V_cC2gT6HBl9BK8JK8mR-1" target="R9zYxcOd8RueL_nEJfBi-1" edge="1">
          <mxGeometry relative="1" as="geometry">
            <mxPoint x="-570" y="445" as="sourcePoint"/>
          </mxGeometry>
        </mxCell>
        <mxCell id="R9zYxcOd8RueL_nEJfBi-3" value="optin email" style="text;html=1;resizable=0;points=[];align=center;verticalAlign=middle;labelBackgroundColor=#ffffff;" parent="R9zYxcOd8RueL_nEJfBi-2" vertex="1" connectable="0">
          <mxGeometry x="-0.3728" y="-4" relative="1" as="geometry">
            <mxPoint as="offset"/>
          </mxGeometry>
        </mxCell>
        <mxCell id="R9zYxcOd8RueL_nEJfBi-6" style="edgeStyle=orthogonalEdgeStyle;rounded=0;orthogonalLoop=1;jettySize=auto;html=1;exitX=0.623;exitY=1.001;exitDx=0;exitDy=0;exitPerimeter=0;" parent="1" source="V_cC2gT6HBl9BK8JK8mR-1" edge="1">
          <mxGeometry relative="1" as="geometry">
            <mxPoint x="-120" y="980" as="targetPoint"/>
            <Array as="points">
              <mxPoint x="-408" y="980"/>
            </Array>
          </mxGeometry>
        </mxCell>
        <mxCell id="R9zYxcOd8RueL_nEJfBi-24" value="create account" style="edgeStyle=orthogonalEdgeStyle;rounded=0;orthogonalLoop=1;jettySize=auto;html=1;exitX=0;exitY=0.25;exitDx=0;exitDy=0;entryX=1;entryY=0.36;entryDx=0;entryDy=0;entryPerimeter=0;" parent="1" source="V_cC2gT6HBl9BK8JK8mR-1" target="R9zYxcOd8RueL_nEJfBi-1" edge="1">
          <mxGeometry x="-0.2744" relative="1" as="geometry">
            <Array as="points">
              <mxPoint x="-570" y="430"/>
              <mxPoint x="-880" y="430"/>
              <mxPoint x="-880" y="475"/>
            </Array>
            <mxPoint as="offset"/>
          </mxGeometry>
        </mxCell>
        <mxCell id="R9zYxcOd8RueL_nEJfBi-25" style="edgeStyle=orthogonalEdgeStyle;rounded=0;orthogonalLoop=1;jettySize=auto;html=1;exitX=0;exitY=0.25;exitDx=0;exitDy=0;entryX=1;entryY=0.168;entryDx=0;entryDy=0;entryPerimeter=0;" parent="1" source="V_cC2gT6HBl9BK8JK8mR-1" target="R9zYxcOd8RueL_nEJfBi-1" edge="1">
          <mxGeometry relative="1" as="geometry">
            <Array as="points">
              <mxPoint x="-900" y="398"/>
              <mxPoint x="-900" y="451"/>
            </Array>
          </mxGeometry>
        </mxCell>
        <mxCell id="R9zYxcOd8RueL_nEJfBi-26" value="share wishlist" style="text;html=1;resizable=0;points=[];align=center;verticalAlign=middle;labelBackgroundColor=#ffffff;" parent="R9zYxcOd8RueL_nEJfBi-25" vertex="1" connectable="0">
          <mxGeometry x="-0.3872" y="-1" relative="1" as="geometry">
            <mxPoint as="offset"/>
          </mxGeometry>
        </mxCell>
        <mxCell id="R9zYxcOd8RueL_nEJfBi-28" style="edgeStyle=orthogonalEdgeStyle;rounded=0;orthogonalLoop=1;jettySize=auto;html=1;entryX=1;entryY=0.5;entryDx=0;entryDy=0;exitX=0;exitY=0.681;exitDx=0;exitDy=0;exitPerimeter=0;" parent="1" source="V_cC2gT6HBl9BK8JK8mR-1" target="t0MbtXIJnq7x4KhH7S1b-1" edge="1">
          <mxGeometry relative="1" as="geometry"/>
        </mxCell>
        <mxCell id="V_cC2gT6HBl9BK8JK8mR-1" value="SFCC&lt;br&gt;AMER" style="rounded=0;whiteSpace=wrap;html=1;fillColor=#1ba1e2;strokeColor=#006EAF;fontColor=#ffffff;" parent="1" vertex="1">
          <mxGeometry x="-570" y="280" width="260" height="470" as="geometry"/>
        </mxCell>
        <mxCell id="V_cC2gT6HBl9BK8JK8mR-44" value="Core Media" style="rounded=0;whiteSpace=wrap;html=1;" parent="1" vertex="1">
          <mxGeometry x="-826.5" y="750" width="90" height="40" as="geometry"/>
        </mxCell>
        <mxCell id="CGBd2wxsoKawMv2vk4Lg-89" style="edgeStyle=orthogonalEdgeStyle;rounded=0;orthogonalLoop=1;jettySize=auto;html=1;strokeWidth=1;exitX=0.425;exitY=1.005;exitDx=0;exitDy=0;exitPerimeter=0;" parent="1" source="V_cC2gT6HBl9BK8JK8mR-4" edge="1">
          <mxGeometry relative="1" as="geometry">
            <mxPoint x="-458" y="280" as="targetPoint"/>
            <Array as="points">
              <mxPoint x="-458" y="280"/>
            </Array>
          </mxGeometry>
        </mxCell>
        <mxCell id="CGBd2wxsoKawMv2vk4Lg-90" value="store&lt;br&gt;inventory" style="text;html=1;resizable=0;points=[];align=center;verticalAlign=middle;labelBackgroundColor=#ffffff;" parent="CGBd2wxsoKawMv2vk4Lg-89" vertex="1" connectable="0">
          <mxGeometry x="0.5125" y="1" relative="1" as="geometry">
            <mxPoint x="-3" y="-57" as="offset"/>
          </mxGeometry>
        </mxCell>
        <mxCell id="CGBd2wxsoKawMv2vk4Lg-99" style="edgeStyle=orthogonalEdgeStyle;rounded=0;orthogonalLoop=1;jettySize=auto;html=1;exitX=0.829;exitY=1.006;exitDx=0;exitDy=0;entryX=0.857;entryY=0;entryDx=0;entryDy=0;entryPerimeter=0;strokeWidth=1;exitPerimeter=0;" parent="1" source="V_cC2gT6HBl9BK8JK8mR-4" target="V_cC2gT6HBl9BK8JK8mR-1" edge="1">
          <mxGeometry relative="1" as="geometry">
            <Array as="points">
              <mxPoint x="-361" y="219"/>
              <mxPoint x="-348" y="219"/>
            </Array>
          </mxGeometry>
        </mxCell>
        <mxCell id="CGBd2wxsoKawMv2vk4Lg-100" value="inventory" style="text;html=1;resizable=0;points=[];align=center;verticalAlign=middle;labelBackgroundColor=#ffffff;" parent="CGBd2wxsoKawMv2vk4Lg-99" vertex="1" connectable="0">
          <mxGeometry x="0.5571" relative="1" as="geometry">
            <mxPoint as="offset"/>
          </mxGeometry>
        </mxCell>
        <mxCell id="LyeL0jYoltdHp8bPtdGk-1" value="item&lt;br&gt;&amp;nbsp;master" style="edgeStyle=orthogonalEdgeStyle;rounded=0;orthogonalLoop=1;jettySize=auto;html=1;exitX=0.25;exitY=1;exitDx=0;exitDy=0;entryX=0.25;entryY=0;entryDx=0;entryDy=0;" parent="1" source="V_cC2gT6HBl9BK8JK8mR-4" target="V_cC2gT6HBl9BK8JK8mR-1" edge="1">
          <mxGeometry relative="1" as="geometry">
            <Array as="points">
              <mxPoint x="-520" y="220"/>
              <mxPoint x="-517" y="220"/>
            </Array>
          </mxGeometry>
        </mxCell>
        <mxCell id="V_cC2gT6HBl9BK8JK8mR-4" value="ftp.pandora.net" style="rounded=0;whiteSpace=wrap;html=1;" parent="1" vertex="1">
          <mxGeometry x="-560" y="100" width="240" height="70" as="geometry"/>
        </mxCell>
        <mxCell id="CGBd2wxsoKawMv2vk4Lg-79" style="edgeStyle=orthogonalEdgeStyle;rounded=0;orthogonalLoop=1;jettySize=auto;html=1;strokeWidth=1;" parent="1" source="V_cC2gT6HBl9BK8JK8mR-6" edge="1">
          <mxGeometry relative="1" as="geometry">
            <mxPoint x="40" y="145" as="targetPoint"/>
          </mxGeometry>
        </mxCell>
        <mxCell id="CGBd2wxsoKawMv2vk4Lg-80" value="orders" style="text;html=1;resizable=0;points=[];align=center;verticalAlign=middle;labelBackgroundColor=#ffffff;" parent="CGBd2wxsoKawMv2vk4Lg-79" vertex="1" connectable="0">
          <mxGeometry x="-0.2182" relative="1" as="geometry">
            <mxPoint as="offset"/>
          </mxGeometry>
        </mxCell>
        <mxCell id="CGBd2wxsoKawMv2vk4Lg-97" style="edgeStyle=orthogonalEdgeStyle;rounded=0;orthogonalLoop=1;jettySize=auto;html=1;entryX=0.5;entryY=0;entryDx=0;entryDy=0;strokeWidth=1;exitX=0.5;exitY=0;exitDx=0;exitDy=0;" parent="1" source="V_cC2gT6HBl9BK8JK8mR-6" target="V_cC2gT6HBl9BK8JK8mR-4" edge="1">
          <mxGeometry relative="1" as="geometry">
            <mxPoint x="-140" y="70" as="sourcePoint"/>
            <Array as="points">
              <mxPoint x="-140" y="30"/>
              <mxPoint x="-440" y="30"/>
            </Array>
          </mxGeometry>
        </mxCell>
        <mxCell id="CGBd2wxsoKawMv2vk4Lg-98" value="inventory" style="text;html=1;resizable=0;points=[];align=center;verticalAlign=middle;labelBackgroundColor=#ffffff;" parent="CGBd2wxsoKawMv2vk4Lg-97" vertex="1" connectable="0">
          <mxGeometry x="-0.0623" y="2" relative="1" as="geometry">
            <mxPoint as="offset"/>
          </mxGeometry>
        </mxCell>
        <mxCell id="V_cC2gT6HBl9BK8JK8mR-6" value="mulesoft" style="rounded=0;whiteSpace=wrap;html=1;fillColor=#6d8764;strokeColor=#3A5431;fontColor=#ffffff;" parent="1" vertex="1">
          <mxGeometry x="-220" y="80" width="160" height="130" as="geometry"/>
        </mxCell>
        <mxCell id="CGBd2wxsoKawMv2vk4Lg-29" style="edgeStyle=orthogonalEdgeStyle;rounded=0;orthogonalLoop=1;jettySize=auto;html=1;exitX=1;exitY=0.75;exitDx=0;exitDy=0;" parent="1" source="V_cC2gT6HBl9BK8JK8mR-8" edge="1">
          <mxGeometry relative="1" as="geometry">
            <mxPoint x="420" y="720" as="targetPoint"/>
            <Array as="points">
              <mxPoint x="420" y="168"/>
            </Array>
          </mxGeometry>
        </mxCell>
        <mxCell id="CGBd2wxsoKawMv2vk4Lg-30" value="egc ID" style="text;html=1;resizable=0;points=[];align=center;verticalAlign=middle;labelBackgroundColor=#ffffff;" parent="CGBd2wxsoKawMv2vk4Lg-29" vertex="1" connectable="0">
          <mxGeometry x="-0.3324" y="3" relative="1" as="geometry">
            <mxPoint x="-3" y="240" as="offset"/>
          </mxGeometry>
        </mxCell>
        <mxCell id="CGBd2wxsoKawMv2vk4Lg-31" style="edgeStyle=orthogonalEdgeStyle;rounded=0;orthogonalLoop=1;jettySize=auto;html=1;exitX=1;exitY=0.5;exitDx=0;exitDy=0;" parent="1" source="V_cC2gT6HBl9BK8JK8mR-8" edge="1">
          <mxGeometry relative="1" as="geometry">
            <mxPoint x="460" y="719" as="targetPoint"/>
            <Array as="points">
              <mxPoint x="460" y="105"/>
            </Array>
          </mxGeometry>
        </mxCell>
        <mxCell id="CGBd2wxsoKawMv2vk4Lg-32" value="egc pin" style="text;html=1;resizable=0;points=[];align=center;verticalAlign=middle;labelBackgroundColor=#ffffff;" parent="CGBd2wxsoKawMv2vk4Lg-31" vertex="1" connectable="0">
          <mxGeometry x="0.5718" relative="1" as="geometry">
            <mxPoint y="-37" as="offset"/>
          </mxGeometry>
        </mxCell>
        <mxCell id="CGBd2wxsoKawMv2vk4Lg-34" style="edgeStyle=orthogonalEdgeStyle;rounded=0;orthogonalLoop=1;jettySize=auto;html=1;exitX=1;exitY=0.25;exitDx=0;exitDy=0;" parent="1" source="V_cC2gT6HBl9BK8JK8mR-8" target="TWL4DVWHpw3BuLWVAcTx-33" edge="1">
          <mxGeometry relative="1" as="geometry"/>
        </mxCell>
        <mxCell id="CGBd2wxsoKawMv2vk4Lg-38" value="settlement" style="edgeStyle=orthogonalEdgeStyle;rounded=0;orthogonalLoop=1;jettySize=auto;html=1;entryX=0.557;entryY=0;entryDx=0;entryDy=0;entryPerimeter=0;exitX=0.306;exitY=0.006;exitDx=0;exitDy=0;exitPerimeter=0;" parent="1" source="V_cC2gT6HBl9BK8JK8mR-8" target="V_cC2gT6HBl9BK8JK8mR-66" edge="1">
          <mxGeometry relative="1" as="geometry">
            <mxPoint x="-1090" y="-263" as="targetPoint"/>
            <mxPoint x="150" y="-10" as="sourcePoint"/>
            <Array as="points">
              <mxPoint x="150" y="-403"/>
              <mxPoint x="-1110" y="-403"/>
            </Array>
          </mxGeometry>
        </mxCell>
        <mxCell id="CGBd2wxsoKawMv2vk4Lg-46" style="edgeStyle=orthogonalEdgeStyle;rounded=0;orthogonalLoop=1;jettySize=auto;html=1;entryX=1;entryY=0.5;entryDx=0;entryDy=0;exitX=0.195;exitY=0;exitDx=0;exitDy=0;exitPerimeter=0;" parent="1" source="V_cC2gT6HBl9BK8JK8mR-8" target="V_cC2gT6HBl9BK8JK8mR-56" edge="1">
          <mxGeometry relative="1" as="geometry">
            <mxPoint x="-170" y="-190" as="targetPoint"/>
            <mxPoint x="80" y="10" as="sourcePoint"/>
            <Array as="points">
              <mxPoint x="110" y="-110"/>
            </Array>
          </mxGeometry>
        </mxCell>
        <mxCell id="CGBd2wxsoKawMv2vk4Lg-47" value="settlement" style="text;html=1;resizable=0;points=[];align=center;verticalAlign=middle;labelBackgroundColor=#ffffff;" parent="CGBd2wxsoKawMv2vk4Lg-46" vertex="1" connectable="0">
          <mxGeometry x="0.1546" relative="1" as="geometry">
            <mxPoint as="offset"/>
          </mxGeometry>
        </mxCell>
        <mxCell id="CGBd2wxsoKawMv2vk4Lg-78" style="edgeStyle=orthogonalEdgeStyle;rounded=0;orthogonalLoop=1;jettySize=auto;html=1;entryX=0.5;entryY=0;entryDx=0;entryDy=0;strokeWidth=1;" parent="1" source="V_cC2gT6HBl9BK8JK8mR-8" target="V_cC2gT6HBl9BK8JK8mR-78" edge="1">
          <mxGeometry relative="1" as="geometry">
            <Array as="points">
              <mxPoint x="100" y="309"/>
              <mxPoint y="309"/>
            </Array>
          </mxGeometry>
        </mxCell>
        <mxCell id="CGBd2wxsoKawMv2vk4Lg-93" style="edgeStyle=orthogonalEdgeStyle;rounded=0;orthogonalLoop=1;jettySize=auto;html=1;strokeWidth=1;" parent="1" source="V_cC2gT6HBl9BK8JK8mR-8" target="V_cC2gT6HBl9BK8JK8mR-23" edge="1">
          <mxGeometry relative="1" as="geometry">
            <Array as="points">
              <mxPoint x="310" y="370"/>
              <mxPoint x="310" y="370"/>
            </Array>
          </mxGeometry>
        </mxCell>
        <mxCell id="CGBd2wxsoKawMv2vk4Lg-94" value="pgc" style="text;html=1;resizable=0;points=[];align=center;verticalAlign=middle;labelBackgroundColor=#ffffff;" parent="CGBd2wxsoKawMv2vk4Lg-93" vertex="1" connectable="0">
          <mxGeometry x="0.7536" y="-76" relative="1" as="geometry">
            <mxPoint x="76" y="-76" as="offset"/>
          </mxGeometry>
        </mxCell>
        <mxCell id="CGBd2wxsoKawMv2vk4Lg-95" value="pandora&lt;br&gt;merchandise" style="edgeStyle=orthogonalEdgeStyle;rounded=0;orthogonalLoop=1;jettySize=auto;html=1;strokeWidth=1;exitX=0.878;exitY=0.999;exitDx=0;exitDy=0;exitPerimeter=0;entryX=0.936;entryY=0.012;entryDx=0;entryDy=0;entryPerimeter=0;" parent="1" source="V_cC2gT6HBl9BK8JK8mR-8" target="V_cC2gT6HBl9BK8JK8mR-23" edge="1">
          <mxGeometry x="0.4113" relative="1" as="geometry">
            <mxPoint x="356" y="386" as="targetPoint"/>
            <mxPoint as="offset"/>
          </mxGeometry>
        </mxCell>
        <mxCell id="CGBd2wxsoKawMv2vk4Lg-107" style="edgeStyle=orthogonalEdgeStyle;rounded=0;orthogonalLoop=1;jettySize=auto;html=1;exitX=0.25;exitY=0;exitDx=0;exitDy=0;entryX=1;entryY=0.5;entryDx=0;entryDy=0;strokeWidth=1;" parent="1" source="V_cC2gT6HBl9BK8JK8mR-8" target="ea_WDXVp_1bCXUbU4MuW-6" edge="1">
          <mxGeometry relative="1" as="geometry"/>
        </mxCell>
        <mxCell id="wZ4mtcYfP809dJblDa4F-1" value="get card ID" style="text;html=1;resizable=0;points=[];align=center;verticalAlign=middle;labelBackgroundColor=#ffffff;" parent="CGBd2wxsoKawMv2vk4Lg-107" vertex="1" connectable="0">
          <mxGeometry x="0.2921" relative="1" as="geometry">
            <mxPoint as="offset"/>
          </mxGeometry>
        </mxCell>
        <mxCell id="nJtccMS4f_mF61-7Y9xV-1" style="edgeStyle=orthogonalEdgeStyle;rounded=0;orthogonalLoop=1;jettySize=auto;html=1;entryX=1;entryY=0.75;entryDx=0;entryDy=0;exitX=0.139;exitY=-0.006;exitDx=0;exitDy=0;exitPerimeter=0;" parent="1" source="V_cC2gT6HBl9BK8JK8mR-8" target="V_cC2gT6HBl9BK8JK8mR-56" edge="1">
          <mxGeometry relative="1" as="geometry">
            <Array as="points">
              <mxPoint x="90" y="-80"/>
            </Array>
          </mxGeometry>
        </mxCell>
        <mxCell id="nJtccMS4f_mF61-7Y9xV-2" value="fraud review service integration (pull model)" style="text;html=1;resizable=0;points=[];align=center;verticalAlign=middle;labelBackgroundColor=#ffffff;" parent="nJtccMS4f_mF61-7Y9xV-1" vertex="1" connectable="0">
          <mxGeometry x="0.0813" relative="1" as="geometry">
            <mxPoint as="offset"/>
          </mxGeometry>
        </mxCell>
        <mxCell id="R9zYxcOd8RueL_nEJfBi-15" style="edgeStyle=orthogonalEdgeStyle;rounded=0;orthogonalLoop=1;jettySize=auto;html=1;entryX=0.825;entryY=-0.002;entryDx=0;entryDy=0;entryPerimeter=0;exitX=0.996;exitY=0.348;exitDx=0;exitDy=0;exitPerimeter=0;" parent="1" source="V_cC2gT6HBl9BK8JK8mR-8" target="CGBd2wxsoKawMv2vk4Lg-11" edge="1">
          <mxGeometry relative="1" as="geometry">
            <Array as="points">
              <mxPoint x="512" y="67"/>
            </Array>
          </mxGeometry>
        </mxCell>
        <mxCell id="R9zYxcOd8RueL_nEJfBi-16" value="shipping&lt;br&gt;confirmation" style="text;html=1;resizable=0;points=[];align=center;verticalAlign=middle;labelBackgroundColor=#ffffff;" parent="R9zYxcOd8RueL_nEJfBi-15" vertex="1" connectable="0">
          <mxGeometry x="0.0196" y="-2" relative="1" as="geometry">
            <mxPoint as="offset"/>
          </mxGeometry>
        </mxCell>
        <mxCell id="V_cC2gT6HBl9BK8JK8mR-8" value="IBM Sterling" style="rounded=0;whiteSpace=wrap;html=1;fillColor=#f0a30a;strokeColor=#BD7000;fontColor=#ffffff;" parent="1" vertex="1">
          <mxGeometry x="40" y="-20" width="360" height="250" as="geometry"/>
        </mxCell>
        <mxCell id="CGBd2wxsoKawMv2vk4Lg-56" style="edgeStyle=orthogonalEdgeStyle;rounded=0;orthogonalLoop=1;jettySize=auto;html=1;entryX=1;entryY=0.5;entryDx=0;entryDy=0;strokeWidth=1;" parent="1" source="V_cC2gT6HBl9BK8JK8mR-23" target="TWL4DVWHpw3BuLWVAcTx-10" edge="1">
          <mxGeometry relative="1" as="geometry"/>
        </mxCell>
        <mxCell id="CGBd2wxsoKawMv2vk4Lg-57" value="item master" style="text;html=1;resizable=0;points=[];align=center;verticalAlign=middle;labelBackgroundColor=#ffffff;" parent="CGBd2wxsoKawMv2vk4Lg-56" vertex="1" connectable="0">
          <mxGeometry x="-0.012" y="1" relative="1" as="geometry">
            <mxPoint as="offset"/>
          </mxGeometry>
        </mxCell>
        <mxCell id="CGBd2wxsoKawMv2vk4Lg-58" style="edgeStyle=orthogonalEdgeStyle;rounded=0;orthogonalLoop=1;jettySize=auto;html=1;entryX=0.5;entryY=0;entryDx=0;entryDy=0;strokeWidth=1;" parent="1" source="V_cC2gT6HBl9BK8JK8mR-23" target="CGBd2wxsoKawMv2vk4Lg-7" edge="1">
          <mxGeometry relative="1" as="geometry">
            <Array as="points">
              <mxPoint x="216" y="500"/>
              <mxPoint x="216" y="500"/>
            </Array>
          </mxGeometry>
        </mxCell>
        <mxCell id="CGBd2wxsoKawMv2vk4Lg-62" style="edgeStyle=orthogonalEdgeStyle;rounded=0;orthogonalLoop=1;jettySize=auto;html=1;strokeWidth=1;" parent="1" source="V_cC2gT6HBl9BK8JK8mR-23" edge="1">
          <mxGeometry relative="1" as="geometry">
            <mxPoint x="160" y="231" as="targetPoint"/>
            <Array as="points">
              <mxPoint x="200" y="320"/>
              <mxPoint x="160" y="320"/>
            </Array>
          </mxGeometry>
        </mxCell>
        <mxCell id="CGBd2wxsoKawMv2vk4Lg-63" value="inventroy" style="text;html=1;resizable=0;points=[];align=center;verticalAlign=middle;labelBackgroundColor=#ffffff;" parent="CGBd2wxsoKawMv2vk4Lg-62" vertex="1" connectable="0">
          <mxGeometry x="0.2597" y="-4" relative="1" as="geometry">
            <mxPoint x="-4" y="-33" as="offset"/>
          </mxGeometry>
        </mxCell>
        <mxCell id="CGBd2wxsoKawMv2vk4Lg-64" value="shipping &lt;br&gt;confirmation" style="edgeStyle=orthogonalEdgeStyle;rounded=0;orthogonalLoop=1;jettySize=auto;html=1;strokeWidth=1;" parent="1" source="V_cC2gT6HBl9BK8JK8mR-23" edge="1">
          <mxGeometry relative="1" as="geometry">
            <mxPoint x="260" y="230" as="targetPoint"/>
            <Array as="points">
              <mxPoint x="260" y="250"/>
            </Array>
          </mxGeometry>
        </mxCell>
        <mxCell id="CGBd2wxsoKawMv2vk4Lg-69" style="edgeStyle=orthogonalEdgeStyle;rounded=0;orthogonalLoop=1;jettySize=auto;html=1;entryX=1;entryY=0.5;entryDx=0;entryDy=0;strokeWidth=1;" parent="1" source="V_cC2gT6HBl9BK8JK8mR-23" target="CGBd2wxsoKawMv2vk4Lg-8" edge="1">
          <mxGeometry relative="1" as="geometry">
            <Array as="points">
              <mxPoint x="280" y="694"/>
            </Array>
          </mxGeometry>
        </mxCell>
        <mxCell id="V_cC2gT6HBl9BK8JK8mR-23" value="JDE (WMS)" style="rounded=0;whiteSpace=wrap;html=1;fillColor=#a0522d;strokeColor=#6D1F00;fontColor=#ffffff;" parent="1" vertex="1">
          <mxGeometry x="150" y="390" width="220" height="85" as="geometry"/>
        </mxCell>
        <mxCell id="V_cC2gT6HBl9BK8JK8mR-39" value="Gigya Login" style="rounded=0;whiteSpace=wrap;html=1;" parent="1" vertex="1">
          <mxGeometry x="-1022.5" y="535" width="90" height="40" as="geometry"/>
        </mxCell>
        <mxCell id="V_cC2gT6HBl9BK8JK8mR-41" value="SCV - CRM" style="rounded=0;whiteSpace=wrap;html=1;" parent="1" vertex="1">
          <mxGeometry x="-500" y="1060" width="180" height="80" as="geometry"/>
        </mxCell>
        <mxCell id="CGBd2wxsoKawMv2vk4Lg-39" style="edgeStyle=orthogonalEdgeStyle;rounded=0;orthogonalLoop=1;jettySize=auto;html=1;exitX=0;exitY=0.5;exitDx=0;exitDy=0;entryX=0.344;entryY=0.975;entryDx=0;entryDy=0;entryPerimeter=0;" parent="1" source="V_cC2gT6HBl9BK8JK8mR-56" target="V_cC2gT6HBl9BK8JK8mR-60" edge="1">
          <mxGeometry relative="1" as="geometry"/>
        </mxCell>
        <mxCell id="CGBd2wxsoKawMv2vk4Lg-40" value="auth" style="text;html=1;resizable=0;points=[];align=center;verticalAlign=middle;labelBackgroundColor=#ffffff;" parent="CGBd2wxsoKawMv2vk4Lg-39" vertex="1" connectable="0">
          <mxGeometry x="0.449" y="-2" relative="1" as="geometry">
            <mxPoint as="offset"/>
          </mxGeometry>
        </mxCell>
        <mxCell id="CGBd2wxsoKawMv2vk4Lg-41" style="edgeStyle=orthogonalEdgeStyle;rounded=0;orthogonalLoop=1;jettySize=auto;html=1;exitX=1;exitY=0.25;exitDx=0;exitDy=0;entryX=0.5;entryY=1;entryDx=0;entryDy=0;" parent="1" source="V_cC2gT6HBl9BK8JK8mR-56" target="scgPz5cgnYkhwIzWvn8L-4" edge="1">
          <mxGeometry relative="1" as="geometry">
            <Array as="points">
              <mxPoint x="-766" y="-147"/>
            </Array>
          </mxGeometry>
        </mxCell>
        <mxCell id="CGBd2wxsoKawMv2vk4Lg-43" value="auth" style="text;html=1;resizable=0;points=[];align=center;verticalAlign=middle;labelBackgroundColor=#ffffff;" parent="CGBd2wxsoKawMv2vk4Lg-41" vertex="1" connectable="0">
          <mxGeometry x="0.2647" y="-2" relative="1" as="geometry">
            <mxPoint as="offset"/>
          </mxGeometry>
        </mxCell>
        <mxCell id="CGBd2wxsoKawMv2vk4Lg-91" value="auth" style="edgeStyle=orthogonalEdgeStyle;rounded=0;orthogonalLoop=1;jettySize=auto;html=1;entryX=0.4;entryY=1.1;entryDx=0;entryDy=0;entryPerimeter=0;strokeWidth=1;" parent="1" source="V_cC2gT6HBl9BK8JK8mR-56" target="V_cC2gT6HBl9BK8JK8mR-63" edge="1">
          <mxGeometry relative="1" as="geometry"/>
        </mxCell>
        <mxCell id="nJtccMS4f_mF61-7Y9xV-3" style="edgeStyle=orthogonalEdgeStyle;rounded=0;orthogonalLoop=1;jettySize=auto;html=1;exitX=0.75;exitY=1;exitDx=0;exitDy=0;" parent="1" source="V_cC2gT6HBl9BK8JK8mR-56" target="V_cC2gT6HBl9BK8JK8mR-8" edge="1">
          <mxGeometry relative="1" as="geometry">
            <mxPoint x="-380" y="-9.999999999999773" as="targetPoint"/>
            <Array as="points">
              <mxPoint x="-843" y="-50"/>
              <mxPoint x="-843" y="-40"/>
              <mxPoint x="76" y="-40"/>
            </Array>
          </mxGeometry>
        </mxCell>
        <mxCell id="nJtccMS4f_mF61-7Y9xV-4" value="fraud review (push model)" style="text;html=1;resizable=0;points=[];align=center;verticalAlign=middle;labelBackgroundColor=#ffffff;" parent="nJtccMS4f_mF61-7Y9xV-3" vertex="1" connectable="0">
          <mxGeometry x="0.0121" y="-1" relative="1" as="geometry">
            <mxPoint as="offset"/>
          </mxGeometry>
        </mxCell>
        <mxCell id="nJtccMS4f_mF61-7Y9xV-5" value="IBM MQ" style="text;html=1;resizable=0;points=[];align=center;verticalAlign=middle;labelBackgroundColor=#ffffff;" parent="nJtccMS4f_mF61-7Y9xV-3" vertex="1" connectable="0">
          <mxGeometry x="0.3927" y="-4" relative="1" as="geometry">
            <mxPoint x="2.5" y="-4" as="offset"/>
          </mxGeometry>
        </mxCell>
        <mxCell id="V_cC2gT6HBl9BK8JK8mR-56" value="Cybersource" style="rounded=0;whiteSpace=wrap;html=1;" parent="1" vertex="1">
          <mxGeometry x="-970" y="-170" width="170" height="120" as="geometry"/>
        </mxCell>
        <mxCell id="V_cC2gT6HBl9BK8JK8mR-63" value="Apple Pay" style="rounded=0;whiteSpace=wrap;html=1;" parent="1" vertex="1">
          <mxGeometry x="-921" y="-290" width="90" height="40" as="geometry"/>
        </mxCell>
        <mxCell id="V_cC2gT6HBl9BK8JK8mR-60" value="PayPal" style="rounded=0;whiteSpace=wrap;html=1;" parent="1" vertex="1">
          <mxGeometry x="-1031" y="-290" width="90" height="40" as="geometry"/>
        </mxCell>
        <mxCell id="V_cC2gT6HBl9BK8JK8mR-66" value="Synchrony (US)" style="rounded=0;whiteSpace=wrap;html=1;" parent="1" vertex="1">
          <mxGeometry x="-1160" y="-290" width="90" height="40" as="geometry"/>
        </mxCell>
        <mxCell id="V_cC2gT6HBl9BK8JK8mR-78" value="Vertex" style="rounded=0;whiteSpace=wrap;html=1;" parent="1" vertex="1">
          <mxGeometry x="-45" y="415" width="90" height="40" as="geometry"/>
        </mxCell>
        <mxCell id="V_cC2gT6HBl9BK8JK8mR-85" value="Bazaarvoice&amp;nbsp;" style="rounded=0;whiteSpace=wrap;html=1;" parent="1" vertex="1">
          <mxGeometry x="-825" y="825" width="90" height="40" as="geometry"/>
        </mxCell>
        <mxCell id="9Npi8_EjcijGg6YAnJOB-1" value="google recaptcha" style="rounded=0;whiteSpace=wrap;html=1;fillColor=none;" parent="1" vertex="1">
          <mxGeometry x="-270" y="764.5" width="130" height="40" as="geometry"/>
        </mxCell>
        <mxCell id="9Npi8_EjcijGg6YAnJOB-9" value="" style="endArrow=classic;html=1;strokeColor=#080200;strokeWidth=1;entryX=1;entryY=0.25;entryDx=0;entryDy=0;" parent="1" target="V_cC2gT6HBl9BK8JK8mR-6" edge="1">
          <mxGeometry width="50" height="50" relative="1" as="geometry">
            <mxPoint x="40" y="113" as="sourcePoint"/>
            <mxPoint x="-10" y="120" as="targetPoint"/>
          </mxGeometry>
        </mxCell>
        <mxCell id="9Npi8_EjcijGg6YAnJOB-10" value="Inventory" style="text;html=1;resizable=0;points=[];align=center;verticalAlign=middle;labelBackgroundColor=#ffffff;" parent="9Npi8_EjcijGg6YAnJOB-9" vertex="1" connectable="0">
          <mxGeometry x="-0.14" relative="1" as="geometry">
            <mxPoint as="offset"/>
          </mxGeometry>
        </mxCell>
        <mxCell id="MaIgf1kPmnHuQDMeoxbi-1" value="&lt;span style=&quot;color: rgb(23 , 43 , 77) ; font-size: 14px ; letter-spacing: -0.07px ; white-space: pre-wrap ; background-color: rgb(255 , 255 , 255)&quot;&gt;Call Center&lt;/span&gt;" style="rounded=0;whiteSpace=wrap;html=1;fillColor=none;" parent="1" vertex="1">
          <mxGeometry x="-826.5" y="895" width="120" height="60" as="geometry"/>
        </mxCell>
        <mxCell id="MaIgf1kPmnHuQDMeoxbi-3" value="service cloud" style="rounded=0;whiteSpace=wrap;html=1;fillColor=none;" parent="1" vertex="1">
          <mxGeometry x="-825" y="975" width="124" height="60" as="geometry"/>
        </mxCell>
        <mxCell id="u5Q9tlcLcI0Oim-ChqrU-1" value="narvar tracking" style="rounded=0;whiteSpace=wrap;html=1;fillColor=none;" parent="1" vertex="1">
          <mxGeometry x="-275" y="650" width="135" height="40" as="geometry"/>
        </mxCell>
        <mxCell id="scgPz5cgnYkhwIzWvn8L-4" value="credit card" style="rounded=0;whiteSpace=wrap;html=1;" parent="1" vertex="1">
          <mxGeometry x="-811" y="-290" width="90" height="40" as="geometry"/>
        </mxCell>
        <mxCell id="CGBd2wxsoKawMv2vk4Lg-36" style="edgeStyle=orthogonalEdgeStyle;rounded=0;orthogonalLoop=1;jettySize=auto;html=1;exitX=0.5;exitY=1;exitDx=0;exitDy=0;entryX=0.655;entryY=0;entryDx=0;entryDy=0;entryPerimeter=0;" parent="1" source="TWL4DVWHpw3BuLWVAcTx-5" target="V_cC2gT6HBl9BK8JK8mR-8" edge="1">
          <mxGeometry relative="1" as="geometry">
            <mxPoint x="260" y="-120" as="targetPoint"/>
          </mxGeometry>
        </mxCell>
        <mxCell id="CGBd2wxsoKawMv2vk4Lg-37" value="store inventory" style="text;html=1;resizable=0;points=[];align=center;verticalAlign=middle;labelBackgroundColor=#ffffff;" parent="CGBd2wxsoKawMv2vk4Lg-36" vertex="1" connectable="0">
          <mxGeometry x="-0.5429" y="-1" relative="1" as="geometry">
            <mxPoint as="offset"/>
          </mxGeometry>
        </mxCell>
        <mxCell id="TWL4DVWHpw3BuLWVAcTx-5" value="KWI" style="rounded=0;whiteSpace=wrap;html=1;fillColor=none;" parent="1" vertex="1">
          <mxGeometry x="215" y="-300" width="120" height="40" as="geometry"/>
        </mxCell>
        <mxCell id="TWL4DVWHpw3BuLWVAcTx-6" value="stores POS systems" style="rounded=0;whiteSpace=wrap;html=1;fillColor=none;" parent="1" vertex="1">
          <mxGeometry x="480" y="-300" width="100" height="40" as="geometry"/>
        </mxCell>
        <mxCell id="TWL4DVWHpw3BuLWVAcTx-7" value="" style="endArrow=classic;html=1;entryX=1;entryY=0.5;entryDx=0;entryDy=0;exitX=0;exitY=0.5;exitDx=0;exitDy=0;" parent="1" source="TWL4DVWHpw3BuLWVAcTx-6" target="TWL4DVWHpw3BuLWVAcTx-5" edge="1">
          <mxGeometry width="50" height="50" relative="1" as="geometry">
            <mxPoint x="240" y="-120" as="sourcePoint"/>
            <mxPoint x="290" y="-170" as="targetPoint"/>
          </mxGeometry>
        </mxCell>
        <mxCell id="hYiq06KfD0AA_lfxn917-4" value="store inventory" style="text;html=1;resizable=0;points=[];align=center;verticalAlign=middle;labelBackgroundColor=#ffffff;" parent="TWL4DVWHpw3BuLWVAcTx-7" vertex="1" connectable="0">
          <mxGeometry x="0.0905" relative="1" as="geometry">
            <mxPoint x="6.5" as="offset"/>
          </mxGeometry>
        </mxCell>
        <mxCell id="TWL4DVWHpw3BuLWVAcTx-10" value="pfs ftp" style="rounded=0;whiteSpace=wrap;html=1;fillColor=none;" parent="1" vertex="1">
          <mxGeometry x="-70" y="492.5" width="100" height="45" as="geometry"/>
        </mxCell>
        <mxCell id="TWL4DVWHpw3BuLWVAcTx-14" value="" style="endArrow=classic;html=1;" parent="1" edge="1">
          <mxGeometry width="50" height="50" relative="1" as="geometry">
            <mxPoint x="-320" y="132" as="sourcePoint"/>
            <mxPoint x="-219" y="132" as="targetPoint"/>
          </mxGeometry>
        </mxCell>
        <mxCell id="TWL4DVWHpw3BuLWVAcTx-15" value="orders" style="text;html=1;resizable=0;points=[];align=center;verticalAlign=middle;labelBackgroundColor=#ffffff;" parent="TWL4DVWHpw3BuLWVAcTx-14" vertex="1" connectable="0">
          <mxGeometry x="-0.0773" y="-1" relative="1" as="geometry">
            <mxPoint y="-1" as="offset"/>
          </mxGeometry>
        </mxCell>
        <mxCell id="CGBd2wxsoKawMv2vk4Lg-74" value="product&lt;br&gt;images" style="edgeStyle=orthogonalEdgeStyle;rounded=0;orthogonalLoop=1;jettySize=auto;html=1;entryX=0;entryY=0.08;entryDx=0;entryDy=0;entryPerimeter=0;strokeWidth=1;exitX=1;exitY=0.25;exitDx=0;exitDy=0;" parent="1" source="TWL4DVWHpw3BuLWVAcTx-21" target="TWL4DVWHpw3BuLWVAcTx-22" edge="1">
          <mxGeometry relative="1" as="geometry"/>
        </mxCell>
        <mxCell id="CGBd2wxsoKawMv2vk4Lg-75" style="edgeStyle=orthogonalEdgeStyle;rounded=0;orthogonalLoop=1;jettySize=auto;html=1;exitX=1;exitY=0.75;exitDx=0;exitDy=0;strokeWidth=1;" parent="1" source="TWL4DVWHpw3BuLWVAcTx-21" target="TWL4DVWHpw3BuLWVAcTx-22" edge="1">
          <mxGeometry relative="1" as="geometry">
            <Array as="points">
              <mxPoint x="-714" y="160"/>
              <mxPoint x="-714" y="186"/>
            </Array>
          </mxGeometry>
        </mxCell>
        <mxCell id="CGBd2wxsoKawMv2vk4Lg-76" value="item master" style="text;html=1;resizable=0;points=[];align=center;verticalAlign=middle;labelBackgroundColor=#ffffff;" parent="CGBd2wxsoKawMv2vk4Lg-75" vertex="1" connectable="0">
          <mxGeometry x="-0.156" y="-12" relative="1" as="geometry">
            <mxPoint x="-0.5" y="-12" as="offset"/>
          </mxGeometry>
        </mxCell>
        <mxCell id="CGBd2wxsoKawMv2vk4Lg-77" value="price&lt;br&gt;book" style="edgeStyle=orthogonalEdgeStyle;rounded=0;orthogonalLoop=1;jettySize=auto;html=1;exitX=1;exitY=0.5;exitDx=0;exitDy=0;entryX=0;entryY=0.5;entryDx=0;entryDy=0;strokeWidth=1;" parent="1" source="TWL4DVWHpw3BuLWVAcTx-21" target="TWL4DVWHpw3BuLWVAcTx-22" edge="1">
          <mxGeometry relative="1" as="geometry"/>
        </mxCell>
        <mxCell id="TWL4DVWHpw3BuLWVAcTx-21" value="library" style="rounded=0;whiteSpace=wrap;html=1;fillColor=none;" parent="1" vertex="1">
          <mxGeometry x="-885.5" y="50" width="70" height="160" as="geometry"/>
        </mxCell>
        <mxCell id="BeuCx5jV6p69cuenFjHX-1" style="edgeStyle=orthogonalEdgeStyle;rounded=0;orthogonalLoop=1;jettySize=auto;html=1;exitX=1;exitY=0.5;exitDx=0;exitDy=0;" parent="1" source="TWL4DVWHpw3BuLWVAcTx-22" edge="1">
          <mxGeometry relative="1" as="geometry">
            <mxPoint x="-560" y="135" as="targetPoint"/>
          </mxGeometry>
        </mxCell>
        <mxCell id="TWL4DVWHpw3BuLWVAcTx-22" value="salsify" style="rounded=0;whiteSpace=wrap;html=1;fillColor=none;" parent="1" vertex="1">
          <mxGeometry x="-695" y="45" width="60" height="175" as="geometry"/>
        </mxCell>
        <mxCell id="TWL4DVWHpw3BuLWVAcTx-33" value="data lake" style="rounded=0;whiteSpace=wrap;html=1;fillColor=none;" parent="1" vertex="1">
          <mxGeometry x="420" y="-100" width="120" height="40" as="geometry"/>
        </mxCell>
        <mxCell id="N_9rhiI7Wwjrm_V3X6SH-4" value="" style="edgeStyle=orthogonalEdgeStyle;rounded=0;orthogonalLoop=1;jettySize=auto;html=1;endArrow=block;endFill=1;strokeWidth=1;" parent="1" source="N_9rhiI7Wwjrm_V3X6SH-1" target="N_9rhiI7Wwjrm_V3X6SH-3" edge="1">
          <mxGeometry relative="1" as="geometry"/>
        </mxCell>
        <mxCell id="N_9rhiI7Wwjrm_V3X6SH-1" value="tealium" style="rounded=0;whiteSpace=wrap;html=1;fillColor=none;" parent="1" vertex="1">
          <mxGeometry x="-1022.5" y="660" width="90" height="60" as="geometry"/>
        </mxCell>
        <mxCell id="N_9rhiI7Wwjrm_V3X6SH-3" value="Adobe analytics" style="rounded=0;whiteSpace=wrap;html=1;fillColor=none;" parent="1" vertex="1">
          <mxGeometry x="-1040" y="790" width="125" height="60" as="geometry"/>
        </mxCell>
        <mxCell id="N_9rhiI7Wwjrm_V3X6SH-8" value="Abandoned cart email" style="rounded=0;whiteSpace=wrap;html=1;fillColor=none;" parent="1" vertex="1">
          <mxGeometry x="-1280" y="595" width="130" height="60" as="geometry"/>
        </mxCell>
        <mxCell id="R9zYxcOd8RueL_nEJfBi-27" style="edgeStyle=orthogonalEdgeStyle;rounded=0;orthogonalLoop=1;jettySize=auto;html=1;entryX=1;entryY=0.5;entryDx=0;entryDy=0;" parent="1" source="t0MbtXIJnq7x4KhH7S1b-1" target="N_9rhiI7Wwjrm_V3X6SH-8" edge="1">
          <mxGeometry relative="1" as="geometry"/>
        </mxCell>
        <mxCell id="t0MbtXIJnq7x4KhH7S1b-1" value="&lt;span style=&quot;color: rgb(29 , 28 , 29) ; text-align: left ; white-space: normal ; background-color: rgb(248 , 248 , 248)&quot;&gt;&lt;font style=&quot;font-size: 12px&quot;&gt;salescycle&lt;/font&gt;&lt;/span&gt;" style="rounded=0;whiteSpace=wrap;html=1;fillColor=none;" parent="1" vertex="1">
          <mxGeometry x="-860.5" y="570" width="90" height="60" as="geometry"/>
        </mxCell>
        <mxCell id="ea_WDXVp_1bCXUbU4MuW-6" value="Clutch" style="rounded=0;whiteSpace=wrap;html=1;" parent="1" vertex="1">
          <mxGeometry x="-695" y="-290" width="90" height="40" as="geometry"/>
        </mxCell>
        <mxCell id="CGBd2wxsoKawMv2vk4Lg-7" value="PGC" style="rounded=0;whiteSpace=wrap;html=1;" parent="1" vertex="1">
          <mxGeometry x="180" y="580" width="70" height="40" as="geometry"/>
        </mxCell>
        <mxCell id="CGBd2wxsoKawMv2vk4Lg-8" value="Pandora merchandize" style="rounded=0;whiteSpace=wrap;html=1;" parent="1" vertex="1">
          <mxGeometry x="165" y="658" width="95" height="73" as="geometry"/>
        </mxCell>
        <mxCell id="CGBd2wxsoKawMv2vk4Lg-110" style="edgeStyle=orthogonalEdgeStyle;rounded=0;orthogonalLoop=1;jettySize=auto;html=1;exitX=1;exitY=0.75;exitDx=0;exitDy=0;strokeWidth=1;" parent="1" source="CGBd2wxsoKawMv2vk4Lg-11" edge="1">
          <mxGeometry relative="1" as="geometry">
            <mxPoint x="640" y="877" as="targetPoint"/>
          </mxGeometry>
        </mxCell>
        <mxCell id="CGBd2wxsoKawMv2vk4Lg-11" value="SFMC" style="rounded=0;whiteSpace=wrap;html=1;" parent="1" vertex="1">
          <mxGeometry x="380" y="719" width="160" height="211" as="geometry"/>
        </mxCell>
        <mxCell id="2Hfcr1lE23LbYfIMrXho-2" style="edgeStyle=orthogonalEdgeStyle;rounded=0;orthogonalLoop=1;jettySize=auto;html=1;" parent="1" source="2Hfcr1lE23LbYfIMrXho-1" edge="1">
          <mxGeometry relative="1" as="geometry">
            <mxPoint x="-570" y="360" as="targetPoint"/>
          </mxGeometry>
        </mxCell>
        <mxCell id="2Hfcr1lE23LbYfIMrXho-3" value="channel type == DSS" style="text;html=1;resizable=0;points=[];align=center;verticalAlign=middle;labelBackgroundColor=#ffffff;" parent="2Hfcr1lE23LbYfIMrXho-2" vertex="1" connectable="0">
          <mxGeometry x="-0.2839" y="1" relative="1" as="geometry">
            <mxPoint as="offset"/>
          </mxGeometry>
        </mxCell>
        <mxCell id="2Hfcr1lE23LbYfIMrXho-1" value="endless aisle app" style="rounded=0;whiteSpace=wrap;html=1;fillColor=#60a917;strokeColor=#2D7600;fontColor=#ffffff;" parent="1" vertex="1">
          <mxGeometry x="-1280" y="330" width="120" height="60" as="geometry"/>
        </mxCell>
        <mxCell id="rU6rRBoBBgbuxX0UxnhU-1" style="edgeStyle=orthogonalEdgeStyle;rounded=0;orthogonalLoop=1;jettySize=auto;html=1;exitX=0;exitY=0.5;exitDx=0;exitDy=0;entryX=0.994;entryY=0.35;entryDx=0;entryDy=0;entryPerimeter=0;" edge="1" parent="1" source="Qd9IQPsdi0-NPHdEAeZX-2" target="V_cC2gT6HBl9BK8JK8mR-56">
          <mxGeometry relative="1" as="geometry"/>
        </mxCell>
        <mxCell id="Qd9IQPsdi0-NPHdEAeZX-2" value="financial service &lt;br&gt;manual&amp;nbsp;review&amp;nbsp;" style="rounded=0;whiteSpace=wrap;html=1;fillColor=#f8cecc;strokeColor=#b85450;" parent="1" vertex="1">
          <mxGeometry x="-695" y="-195" width="135" height="55" as="geometry"/>
        </mxCell>
        <mxCell id="R9zYxcOd8RueL_nEJfBi-1" value="Adobe message center" style="rounded=0;whiteSpace=wrap;html=1;fillColor=none;" parent="1" vertex="1">
          <mxGeometry x="-1280" y="430" width="120" height="125" as="geometry"/>
        </mxCell>
        <mxCell id="R9zYxcOd8RueL_nEJfBi-14" style="edgeStyle=orthogonalEdgeStyle;rounded=0;orthogonalLoop=1;jettySize=auto;html=1;entryX=0.5;entryY=1;entryDx=0;entryDy=0;" parent="1" source="R9zYxcOd8RueL_nEJfBi-8" target="CGBd2wxsoKawMv2vk4Lg-11" edge="1">
          <mxGeometry relative="1" as="geometry"/>
        </mxCell>
        <mxCell id="R9zYxcOd8RueL_nEJfBi-8" value="" style="rounded=0;whiteSpace=wrap;html=1;fillColor=none;" parent="1" vertex="1">
          <mxGeometry x="-121" y="910" width="201" height="340" as="geometry"/>
        </mxCell>
        <mxCell id="R9zYxcOd8RueL_nEJfBi-9" value="order confirmation" style="rounded=0;whiteSpace=wrap;html=1;fillColor=none;" parent="1" vertex="1">
          <mxGeometry x="-105" y="925" width="165" height="45" as="geometry"/>
        </mxCell>
        <mxCell id="R9zYxcOd8RueL_nEJfBi-10" value="back in stock" style="rounded=0;whiteSpace=wrap;html=1;fillColor=none;" parent="1" vertex="1">
          <mxGeometry x="-105" y="990" width="165" height="45" as="geometry"/>
        </mxCell>
        <mxCell id="R9zYxcOd8RueL_nEJfBi-11" value="create account" style="rounded=0;whiteSpace=wrap;html=1;fillColor=none;" parent="1" vertex="1">
          <mxGeometry x="-105" y="1053.5" width="165" height="45" as="geometry"/>
        </mxCell>
        <mxCell id="R9zYxcOd8RueL_nEJfBi-12" value="reset password" style="rounded=0;whiteSpace=wrap;html=1;fillColor=none;" parent="1" vertex="1">
          <mxGeometry x="-105" y="1117.5" width="165" height="45" as="geometry"/>
        </mxCell>
        <mxCell id="R9zYxcOd8RueL_nEJfBi-13" value="forgot password" style="rounded=0;whiteSpace=wrap;html=1;fillColor=none;" parent="1" vertex="1">
          <mxGeometry x="-105" y="1181.5" width="165" height="45" as="geometry"/>
        </mxCell>
        <mxCell id="R9zYxcOd8RueL_nEJfBi-17" value="email" style="rounded=0;whiteSpace=wrap;html=1;fillColor=none;" parent="1" vertex="1">
          <mxGeometry x="640" y="850" width="120" height="60" as="geometry"/>
        </mxCell>
      </root>
    </mxGraphModel>
  </diagram>
  <diagram name="apac" id="EIWfKB5VZkjwGk6W3vlg">
    <mxGraphModel dx="2496" dy="1655" grid="1" gridSize="10" guides="1" tooltips="1" connect="1" arrows="1" fold="1" page="1" pageScale="1" pageWidth="850" pageHeight="1100" math="0" shadow="0">
      <root>
        <mxCell id="0ujQlf1UAHg-DbxSeM3T-0"/>
        <mxCell id="0ujQlf1UAHg-DbxSeM3T-1" parent="0ujQlf1UAHg-DbxSeM3T-0"/>
        <mxCell id="hommJBHPnSOby9O2m99H-2" value="Core Media" style="rounded=0;whiteSpace=wrap;html=1;" parent="0ujQlf1UAHg-DbxSeM3T-1" vertex="1">
          <mxGeometry x="-150" y="512.3571428571429" width="90" height="40" as="geometry"/>
        </mxCell>
        <mxCell id="UeqCuJD2jrYseoCwrDXT-0" style="edgeStyle=orthogonalEdgeStyle;rounded=0;orthogonalLoop=1;jettySize=auto;html=1;exitX=1;exitY=0.25;exitDx=0;exitDy=0;entryX=0;entryY=0.364;entryDx=0;entryDy=0;entryPerimeter=0;" parent="0ujQlf1UAHg-DbxSeM3T-1" source="hommJBHPnSOby9O2m99H-7" target="hommJBHPnSOby9O2m99H-8" edge="1">
          <mxGeometry relative="1" as="geometry"/>
        </mxCell>
        <mxCell id="UeqCuJD2jrYseoCwrDXT-1" value="order" style="text;html=1;resizable=0;points=[];align=center;verticalAlign=middle;labelBackgroundColor=#ffffff;" parent="UeqCuJD2jrYseoCwrDXT-0" vertex="1" connectable="0">
          <mxGeometry x="0.0683" y="-1" relative="1" as="geometry">
            <mxPoint as="offset"/>
          </mxGeometry>
        </mxCell>
        <mxCell id="UeqCuJD2jrYseoCwrDXT-7" style="edgeStyle=orthogonalEdgeStyle;rounded=0;orthogonalLoop=1;jettySize=auto;html=1;exitX=0.75;exitY=1;exitDx=0;exitDy=0;entryX=0.75;entryY=0;entryDx=0;entryDy=0;" parent="0ujQlf1UAHg-DbxSeM3T-1" source="hommJBHPnSOby9O2m99H-7" target="A-ToxL8tSXIMdeSLULrA-3" edge="1">
          <mxGeometry relative="1" as="geometry"/>
        </mxCell>
        <mxCell id="Thz_6_MigwzPAW4G0Lz0-0" value="inventory" style="text;html=1;resizable=0;points=[];align=center;verticalAlign=middle;labelBackgroundColor=#ffffff;" parent="UeqCuJD2jrYseoCwrDXT-7" vertex="1" connectable="0">
          <mxGeometry x="0.0159" y="-1" relative="1" as="geometry">
            <mxPoint x="0.5" y="-15.5" as="offset"/>
          </mxGeometry>
        </mxCell>
        <mxCell id="TEFJCMFEDFYDByTP8oIz-4" style="edgeStyle=orthogonalEdgeStyle;rounded=0;orthogonalLoop=1;jettySize=auto;html=1;exitX=0.5;exitY=1;exitDx=0;exitDy=0;entryX=0.5;entryY=0;entryDx=0;entryDy=0;" parent="0ujQlf1UAHg-DbxSeM3T-1" source="hommJBHPnSOby9O2m99H-7" target="A-ToxL8tSXIMdeSLULrA-3" edge="1">
          <mxGeometry relative="1" as="geometry"/>
        </mxCell>
        <mxCell id="TEFJCMFEDFYDByTP8oIz-5" value="CYBS&lt;br&gt;decision" style="text;html=1;resizable=0;points=[];align=center;verticalAlign=middle;labelBackgroundColor=#ffffff;" parent="TEFJCMFEDFYDByTP8oIz-4" vertex="1" connectable="0">
          <mxGeometry x="-0.5325" y="2" relative="1" as="geometry">
            <mxPoint x="-2.5" y="39" as="offset"/>
          </mxGeometry>
        </mxCell>
        <mxCell id="hommJBHPnSOby9O2m99H-7" value="ftp.pandora.net" style="rounded=0;whiteSpace=wrap;html=1;" parent="0ujQlf1UAHg-DbxSeM3T-1" vertex="1">
          <mxGeometry x="-560" y="70" width="160" height="90" as="geometry"/>
        </mxCell>
        <mxCell id="UeqCuJD2jrYseoCwrDXT-3" style="edgeStyle=orthogonalEdgeStyle;rounded=0;orthogonalLoop=1;jettySize=auto;html=1;" parent="0ujQlf1UAHg-DbxSeM3T-1" edge="1">
          <mxGeometry relative="1" as="geometry">
            <mxPoint x="-170" y="130" as="sourcePoint"/>
            <mxPoint x="-400" y="130" as="targetPoint"/>
          </mxGeometry>
        </mxCell>
        <mxCell id="UeqCuJD2jrYseoCwrDXT-4" value="inventory" style="text;html=1;resizable=0;points=[];align=center;verticalAlign=middle;labelBackgroundColor=#ffffff;" parent="UeqCuJD2jrYseoCwrDXT-3" vertex="1" connectable="0">
          <mxGeometry x="-0.0311" y="3" relative="1" as="geometry">
            <mxPoint as="offset"/>
          </mxGeometry>
        </mxCell>
        <mxCell id="7lUp_x1afIo9BTKi_Cy8-0" style="edgeStyle=orthogonalEdgeStyle;rounded=0;orthogonalLoop=1;jettySize=auto;html=1;exitX=0.25;exitY=1;exitDx=0;exitDy=0;entryX=1.006;entryY=0.119;entryDx=0;entryDy=0;entryPerimeter=0;" parent="0ujQlf1UAHg-DbxSeM3T-1" source="hommJBHPnSOby9O2m99H-8" target="A-ToxL8tSXIMdeSLULrA-3" edge="1">
          <mxGeometry relative="1" as="geometry"/>
        </mxCell>
        <mxCell id="7lUp_x1afIo9BTKi_Cy8-1" value="order history" style="text;html=1;resizable=0;points=[];align=center;verticalAlign=middle;labelBackgroundColor=#ffffff;" parent="7lUp_x1afIo9BTKi_Cy8-0" vertex="1" connectable="0">
          <mxGeometry x="0.1809" y="-1" relative="1" as="geometry">
            <mxPoint as="offset"/>
          </mxGeometry>
        </mxCell>
        <mxCell id="7lUp_x1afIo9BTKi_Cy8-2" style="edgeStyle=orthogonalEdgeStyle;rounded=0;orthogonalLoop=1;jettySize=auto;html=1;exitX=0.5;exitY=1;exitDx=0;exitDy=0;entryX=1;entryY=0.25;entryDx=0;entryDy=0;" parent="0ujQlf1UAHg-DbxSeM3T-1" source="hommJBHPnSOby9O2m99H-8" target="A-ToxL8tSXIMdeSLULrA-3" edge="1">
          <mxGeometry relative="1" as="geometry"/>
        </mxCell>
        <mxCell id="7lUp_x1afIo9BTKi_Cy8-3" value="order details" style="text;html=1;resizable=0;points=[];align=center;verticalAlign=middle;labelBackgroundColor=#ffffff;" parent="7lUp_x1afIo9BTKi_Cy8-2" vertex="1" connectable="0">
          <mxGeometry x="0.4898" y="2" relative="1" as="geometry">
            <mxPoint as="offset"/>
          </mxGeometry>
        </mxCell>
        <mxCell id="tmD5IpH3FuUaqClwB0ji-0" style="edgeStyle=orthogonalEdgeStyle;rounded=0;orthogonalLoop=1;jettySize=auto;html=1;exitX=0.75;exitY=1;exitDx=0;exitDy=0;entryX=1;entryY=0.4;entryDx=0;entryDy=0;entryPerimeter=0;" parent="0ujQlf1UAHg-DbxSeM3T-1" source="hommJBHPnSOby9O2m99H-8" target="A-ToxL8tSXIMdeSLULrA-3" edge="1">
          <mxGeometry relative="1" as="geometry"/>
        </mxCell>
        <mxCell id="tmD5IpH3FuUaqClwB0ji-1" value="real time inventory check" style="text;html=1;resizable=0;points=[];align=center;verticalAlign=middle;labelBackgroundColor=#ffffff;" parent="tmD5IpH3FuUaqClwB0ji-0" vertex="1" connectable="0">
          <mxGeometry x="0.5762" y="2" relative="1" as="geometry">
            <mxPoint as="offset"/>
          </mxGeometry>
        </mxCell>
        <mxCell id="hommJBHPnSOby9O2m99H-8" value="mulesoft" style="rounded=0;whiteSpace=wrap;html=1;fillColor=#6d8764;strokeColor=#3A5431;fontColor=#ffffff;" parent="0ujQlf1UAHg-DbxSeM3T-1" vertex="1">
          <mxGeometry x="-170" y="50" width="160" height="120" as="geometry"/>
        </mxCell>
        <mxCell id="hommJBHPnSOby9O2m99H-9" value="" style="edgeStyle=orthogonalEdgeStyle;rounded=0;jumpSize=1;orthogonalLoop=1;jettySize=auto;html=1;endArrow=classic;endFill=1;endSize=1;strokeWidth=1;" parent="0ujQlf1UAHg-DbxSeM3T-1" source="hommJBHPnSOby9O2m99H-12" target="hommJBHPnSOby9O2m99H-13" edge="1">
          <mxGeometry relative="1" as="geometry"/>
        </mxCell>
        <mxCell id="hommJBHPnSOby9O2m99H-10" value="orders" style="text;html=1;resizable=0;points=[];align=center;verticalAlign=middle;labelBackgroundColor=#ffffff;" parent="hommJBHPnSOby9O2m99H-9" vertex="1" connectable="0">
          <mxGeometry x="0.2" y="-2" relative="1" as="geometry">
            <mxPoint as="offset"/>
          </mxGeometry>
        </mxCell>
        <mxCell id="mTDmJCWKa9Tn-28nHdp4-12" value="inventory" style="edgeStyle=orthogonalEdgeStyle;rounded=0;orthogonalLoop=1;jettySize=auto;html=1;exitX=0;exitY=0.5;exitDx=0;exitDy=0;entryX=1;entryY=0.5;entryDx=0;entryDy=0;" parent="0ujQlf1UAHg-DbxSeM3T-1" source="hommJBHPnSOby9O2m99H-12" target="hommJBHPnSOby9O2m99H-8" edge="1">
          <mxGeometry relative="1" as="geometry"/>
        </mxCell>
        <mxCell id="mTDmJCWKa9Tn-28nHdp4-13" style="edgeStyle=orthogonalEdgeStyle;rounded=0;orthogonalLoop=1;jettySize=auto;html=1;entryX=0.5;entryY=0;entryDx=0;entryDy=0;" parent="0ujQlf1UAHg-DbxSeM3T-1" source="hommJBHPnSOby9O2m99H-12" target="hommJBHPnSOby9O2m99H-23" edge="1">
          <mxGeometry relative="1" as="geometry"/>
        </mxCell>
        <mxCell id="uiVIuUUbGgQi74KA9Ir1-4" value="credit card refund with card token" style="edgeStyle=orthogonalEdgeStyle;rounded=0;orthogonalLoop=1;jettySize=auto;html=1;entryX=0.5;entryY=0;entryDx=0;entryDy=0;" parent="0ujQlf1UAHg-DbxSeM3T-1" target="Z_Hleo1S81oOe08zgRqG-27" edge="1">
          <mxGeometry relative="1" as="geometry">
            <mxPoint x="140" y="-40" as="sourcePoint"/>
            <Array as="points">
              <mxPoint x="140" y="-140"/>
              <mxPoint x="-1010" y="-140"/>
            </Array>
          </mxGeometry>
        </mxCell>
        <mxCell id="uiVIuUUbGgQi74KA9Ir1-6" style="edgeStyle=orthogonalEdgeStyle;rounded=0;orthogonalLoop=1;jettySize=auto;html=1;exitX=0.5;exitY=0;exitDx=0;exitDy=0;entryX=0.5;entryY=1;entryDx=0;entryDy=0;" parent="0ujQlf1UAHg-DbxSeM3T-1" source="hommJBHPnSOby9O2m99H-12" target="uiVIuUUbGgQi74KA9Ir1-5" edge="1">
          <mxGeometry relative="1" as="geometry"/>
        </mxCell>
        <mxCell id="hommJBHPnSOby9O2m99H-12" value="IBM Sterling OMS" style="rounded=0;whiteSpace=wrap;html=1;fillColor=#f0a30a;strokeColor=#BD7000;fontColor=#ffffff;" parent="0ujQlf1UAHg-DbxSeM3T-1" vertex="1">
          <mxGeometry x="80" y="77.5" width="120" height="60" as="geometry"/>
        </mxCell>
        <mxCell id="hommJBHPnSOby9O2m99H-13" value="DHL &lt;br&gt;(WMS)" style="rounded=0;whiteSpace=wrap;html=1;fillColor=#a0522d;strokeColor=#6D1F00;fontColor=#ffffff;" parent="0ujQlf1UAHg-DbxSeM3T-1" vertex="1">
          <mxGeometry x="320" y="77.5" width="100" height="60" as="geometry"/>
        </mxCell>
        <mxCell id="hommJBHPnSOby9O2m99H-20" value="Gigya Login" style="rounded=0;whiteSpace=wrap;html=1;" parent="0ujQlf1UAHg-DbxSeM3T-1" vertex="1">
          <mxGeometry x="-160" y="627.5" width="110" height="37" as="geometry"/>
        </mxCell>
        <mxCell id="hommJBHPnSOby9O2m99H-22" value="SCV - CRM" style="rounded=0;whiteSpace=wrap;html=1;" parent="0ujQlf1UAHg-DbxSeM3T-1" vertex="1">
          <mxGeometry x="-160" y="690" width="120" height="81" as="geometry"/>
        </mxCell>
        <mxCell id="hommJBHPnSOby9O2m99H-23" value="SFMC" style="rounded=0;whiteSpace=wrap;html=1;" parent="0ujQlf1UAHg-DbxSeM3T-1" vertex="1">
          <mxGeometry x="100" y="352.5" width="80" height="45" as="geometry"/>
        </mxCell>
        <mxCell id="hommJBHPnSOby9O2m99H-45" value="Bazaarvoice&amp;nbsp;" style="rounded=0;whiteSpace=wrap;html=1;" parent="0ujQlf1UAHg-DbxSeM3T-1" vertex="1">
          <mxGeometry x="-164" y="577.5" width="114" height="40" as="geometry"/>
        </mxCell>
        <mxCell id="hommJBHPnSOby9O2m99H-48" value="Inventory" style="endArrow=classic;html=1;strokeColor=#080200;strokeWidth=1;entryX=1;entryY=0.25;entryDx=0;entryDy=0;exitX=0;exitY=0.25;exitDx=0;exitDy=0;" parent="0ujQlf1UAHg-DbxSeM3T-1" source="hommJBHPnSOby9O2m99H-13" target="hommJBHPnSOby9O2m99H-12" edge="1">
          <mxGeometry width="50" height="50" relative="1" as="geometry">
            <mxPoint x="230" y="140" as="sourcePoint"/>
            <mxPoint x="280" y="90" as="targetPoint"/>
          </mxGeometry>
        </mxCell>
        <mxCell id="RwvYzTifMZ9kqdW15sHg-0" value="Singapore" style="rounded=0;whiteSpace=wrap;html=1;fillColor=#a20025;strokeColor=#6F0000;fontColor=#ffffff;" parent="0ujQlf1UAHg-DbxSeM3T-1" vertex="1">
          <mxGeometry x="-550" y="1531" width="130" height="45" as="geometry"/>
        </mxCell>
        <mxCell id="RwvYzTifMZ9kqdW15sHg-2" value="Japan" style="rounded=0;whiteSpace=wrap;html=1;fillColor=#f0a30a;strokeColor=#BD7000;fontColor=#ffffff;" parent="0ujQlf1UAHg-DbxSeM3T-1" vertex="1">
          <mxGeometry x="-550" y="1359.5" width="130" height="61" as="geometry"/>
        </mxCell>
        <mxCell id="INs9kjp2VuD3x6kuad_r-2" style="edgeStyle=orthogonalEdgeStyle;rounded=0;orthogonalLoop=1;jettySize=auto;html=1;entryX=1;entryY=0.5;entryDx=0;entryDy=0;exitX=0.006;exitY=0.807;exitDx=0;exitDy=0;exitPerimeter=0;" parent="0ujQlf1UAHg-DbxSeM3T-1" source="A-ToxL8tSXIMdeSLULrA-3" target="Z_Hleo1S81oOe08zgRqG-30" edge="1">
          <mxGeometry relative="1" as="geometry">
            <mxPoint x="-560" y="390" as="sourcePoint"/>
          </mxGeometry>
        </mxCell>
        <mxCell id="UeqCuJD2jrYseoCwrDXT-5" style="edgeStyle=orthogonalEdgeStyle;rounded=0;orthogonalLoop=1;jettySize=auto;html=1;exitX=0.25;exitY=0;exitDx=0;exitDy=0;entryX=0.25;entryY=1;entryDx=0;entryDy=0;" parent="0ujQlf1UAHg-DbxSeM3T-1" source="A-ToxL8tSXIMdeSLULrA-3" target="hommJBHPnSOby9O2m99H-7" edge="1">
          <mxGeometry relative="1" as="geometry"/>
        </mxCell>
        <mxCell id="UeqCuJD2jrYseoCwrDXT-6" value="order" style="text;html=1;resizable=0;points=[];align=center;verticalAlign=middle;labelBackgroundColor=#ffffff;" parent="UeqCuJD2jrYseoCwrDXT-5" vertex="1" connectable="0">
          <mxGeometry x="-0.0159" y="-1" relative="1" as="geometry">
            <mxPoint as="offset"/>
          </mxGeometry>
        </mxCell>
        <mxCell id="mTDmJCWKa9Tn-28nHdp4-7" style="edgeStyle=orthogonalEdgeStyle;rounded=0;orthogonalLoop=1;jettySize=auto;html=1;exitX=0.006;exitY=0.337;exitDx=0;exitDy=0;entryX=1;entryY=0.5;entryDx=0;entryDy=0;exitPerimeter=0;" parent="0ujQlf1UAHg-DbxSeM3T-1" source="A-ToxL8tSXIMdeSLULrA-3" target="Z_Hleo1S81oOe08zgRqG-27" edge="1">
          <mxGeometry relative="1" as="geometry"/>
        </mxCell>
        <mxCell id="mTDmJCWKa9Tn-28nHdp4-8" style="edgeStyle=orthogonalEdgeStyle;rounded=0;orthogonalLoop=1;jettySize=auto;html=1;exitX=-0.006;exitY=0.859;exitDx=0;exitDy=0;entryX=1;entryY=0.5;entryDx=0;entryDy=0;exitPerimeter=0;" parent="0ujQlf1UAHg-DbxSeM3T-1" source="A-ToxL8tSXIMdeSLULrA-3" target="A-ToxL8tSXIMdeSLULrA-4" edge="1">
          <mxGeometry relative="1" as="geometry">
            <Array as="points">
              <mxPoint x="-630" y="482"/>
              <mxPoint x="-630" y="665"/>
            </Array>
          </mxGeometry>
        </mxCell>
        <mxCell id="mTDmJCWKa9Tn-28nHdp4-9" style="edgeStyle=orthogonalEdgeStyle;rounded=0;orthogonalLoop=1;jettySize=auto;html=1;exitX=0;exitY=0.25;exitDx=0;exitDy=0;entryX=1;entryY=0.5;entryDx=0;entryDy=0;" parent="0ujQlf1UAHg-DbxSeM3T-1" source="A-ToxL8tSXIMdeSLULrA-3" target="mTDmJCWKa9Tn-28nHdp4-6" edge="1">
          <mxGeometry relative="1" as="geometry">
            <Array as="points">
              <mxPoint x="-560" y="317"/>
              <mxPoint x="-650" y="317"/>
              <mxPoint x="-650" y="240"/>
            </Array>
          </mxGeometry>
        </mxCell>
        <mxCell id="RUVx0gtZIDW-YWZjfqNK-4" style="edgeStyle=orthogonalEdgeStyle;rounded=0;orthogonalLoop=1;jettySize=auto;html=1;exitX=0.993;exitY=0.661;exitDx=0;exitDy=0;entryX=0;entryY=0.5;entryDx=0;entryDy=0;exitPerimeter=0;" parent="0ujQlf1UAHg-DbxSeM3T-1" source="A-ToxL8tSXIMdeSLULrA-3" target="LXgEWM2FlRmFWtIx2Ous-1" edge="1">
          <mxGeometry relative="1" as="geometry"/>
        </mxCell>
        <mxCell id="RUVx0gtZIDW-YWZjfqNK-6" value="content" style="text;html=1;resizable=0;points=[];align=center;verticalAlign=middle;labelBackgroundColor=#ffffff;" parent="RUVx0gtZIDW-YWZjfqNK-4" vertex="1" connectable="0">
          <mxGeometry x="0.4202" relative="1" as="geometry">
            <mxPoint x="-3.5" as="offset"/>
          </mxGeometry>
        </mxCell>
        <mxCell id="RUVx0gtZIDW-YWZjfqNK-7" style="edgeStyle=orthogonalEdgeStyle;rounded=0;orthogonalLoop=1;jettySize=auto;html=1;exitX=1.007;exitY=0.718;exitDx=0;exitDy=0;entryX=0;entryY=0.5;entryDx=0;entryDy=0;exitPerimeter=0;" parent="0ujQlf1UAHg-DbxSeM3T-1" source="A-ToxL8tSXIMdeSLULrA-3" target="hommJBHPnSOby9O2m99H-45" edge="1">
          <mxGeometry relative="1" as="geometry">
            <Array as="points">
              <mxPoint x="-398" y="445"/>
              <mxPoint x="-309" y="445"/>
              <mxPoint x="-309" y="597"/>
            </Array>
          </mxGeometry>
        </mxCell>
        <mxCell id="RUVx0gtZIDW-YWZjfqNK-8" value="ratings &lt;br&gt;and reviews" style="text;html=1;resizable=0;points=[];align=center;verticalAlign=middle;labelBackgroundColor=#ffffff;" parent="RUVx0gtZIDW-YWZjfqNK-7" vertex="1" connectable="0">
          <mxGeometry x="-0.1771" relative="1" as="geometry">
            <mxPoint x="69" y="83.5" as="offset"/>
          </mxGeometry>
        </mxCell>
        <mxCell id="RUVx0gtZIDW-YWZjfqNK-12" style="edgeStyle=orthogonalEdgeStyle;rounded=0;orthogonalLoop=1;jettySize=auto;html=1;entryX=1;entryY=0.5;entryDx=0;entryDy=0;exitX=0;exitY=0.919;exitDx=0;exitDy=0;exitPerimeter=0;" parent="0ujQlf1UAHg-DbxSeM3T-1" source="A-ToxL8tSXIMdeSLULrA-3" target="RUVx0gtZIDW-YWZjfqNK-10" edge="1">
          <mxGeometry relative="1" as="geometry">
            <Array as="points">
              <mxPoint x="-610" y="498"/>
              <mxPoint x="-610" y="751"/>
            </Array>
          </mxGeometry>
        </mxCell>
        <mxCell id="RUVx0gtZIDW-YWZjfqNK-13" value="identity &lt;br&gt;management" style="edgeStyle=orthogonalEdgeStyle;rounded=0;orthogonalLoop=1;jettySize=auto;html=1;exitX=1;exitY=0.75;exitDx=0;exitDy=0;entryX=0;entryY=0.5;entryDx=0;entryDy=0;" parent="0ujQlf1UAHg-DbxSeM3T-1" source="A-ToxL8tSXIMdeSLULrA-3" target="hommJBHPnSOby9O2m99H-20" edge="1">
          <mxGeometry x="0.4919" relative="1" as="geometry">
            <Array as="points">
              <mxPoint x="-330" y="453"/>
              <mxPoint x="-330" y="646"/>
            </Array>
            <mxPoint as="offset"/>
          </mxGeometry>
        </mxCell>
        <mxCell id="RUVx0gtZIDW-YWZjfqNK-14" style="edgeStyle=orthogonalEdgeStyle;rounded=0;orthogonalLoop=1;jettySize=auto;html=1;entryX=0;entryY=0.25;entryDx=0;entryDy=0;exitX=1.013;exitY=0.841;exitDx=0;exitDy=0;exitPerimeter=0;" parent="0ujQlf1UAHg-DbxSeM3T-1" source="A-ToxL8tSXIMdeSLULrA-3" target="hommJBHPnSOby9O2m99H-22" edge="1">
          <mxGeometry relative="1" as="geometry">
            <Array as="points">
              <mxPoint x="-350" y="477"/>
              <mxPoint x="-350" y="710"/>
            </Array>
          </mxGeometry>
        </mxCell>
        <mxCell id="RUVx0gtZIDW-YWZjfqNK-15" value="email signup" style="text;html=1;resizable=0;points=[];align=center;verticalAlign=middle;labelBackgroundColor=#ffffff;" parent="RUVx0gtZIDW-YWZjfqNK-14" vertex="1" connectable="0">
          <mxGeometry x="0.3026" relative="1" as="geometry">
            <mxPoint x="54" as="offset"/>
          </mxGeometry>
        </mxCell>
        <mxCell id="psA7lSaHuiDHuxOU04ly-0" style="edgeStyle=orthogonalEdgeStyle;rounded=0;orthogonalLoop=1;jettySize=auto;html=1;exitX=1.006;exitY=0.893;exitDx=0;exitDy=0;entryX=0;entryY=0.75;entryDx=0;entryDy=0;exitPerimeter=0;" parent="0ujQlf1UAHg-DbxSeM3T-1" source="A-ToxL8tSXIMdeSLULrA-3" target="hommJBHPnSOby9O2m99H-22" edge="1">
          <mxGeometry relative="1" as="geometry">
            <Array as="points">
              <mxPoint x="-370" y="491"/>
              <mxPoint x="-370" y="751"/>
            </Array>
          </mxGeometry>
        </mxCell>
        <mxCell id="psA7lSaHuiDHuxOU04ly-1" value="wishlist" style="text;html=1;resizable=0;points=[];align=center;verticalAlign=middle;labelBackgroundColor=#ffffff;" parent="psA7lSaHuiDHuxOU04ly-0" vertex="1" connectable="0">
          <mxGeometry x="0.5532" y="1" relative="1" as="geometry">
            <mxPoint as="offset"/>
          </mxGeometry>
        </mxCell>
        <mxCell id="psA7lSaHuiDHuxOU04ly-2" style="edgeStyle=orthogonalEdgeStyle;rounded=0;orthogonalLoop=1;jettySize=auto;html=1;entryX=0;entryY=0.75;entryDx=0;entryDy=0;exitX=1;exitY=0.941;exitDx=0;exitDy=0;exitPerimeter=0;" parent="0ujQlf1UAHg-DbxSeM3T-1" source="A-ToxL8tSXIMdeSLULrA-3" target="PinnsFXiMRAGbYlJQDG_-0" edge="1">
          <mxGeometry relative="1" as="geometry">
            <Array as="points">
              <mxPoint x="-380" y="504"/>
              <mxPoint x="-380" y="857"/>
            </Array>
          </mxGeometry>
        </mxCell>
        <mxCell id="psA7lSaHuiDHuxOU04ly-3" value="A/B testing" style="text;html=1;resizable=0;points=[];align=center;verticalAlign=middle;labelBackgroundColor=#ffffff;" parent="psA7lSaHuiDHuxOU04ly-2" vertex="1" connectable="0">
          <mxGeometry x="0.6189" y="2" relative="1" as="geometry">
            <mxPoint as="offset"/>
          </mxGeometry>
        </mxCell>
        <mxCell id="uiVIuUUbGgQi74KA9Ir1-2" value="product feed" style="edgeStyle=orthogonalEdgeStyle;rounded=0;orthogonalLoop=1;jettySize=auto;html=1;exitX=0.75;exitY=1;exitDx=0;exitDy=0;entryX=0;entryY=0.5;entryDx=0;entryDy=0;" parent="0ujQlf1UAHg-DbxSeM3T-1" source="A-ToxL8tSXIMdeSLULrA-3" target="uiVIuUUbGgQi74KA9Ir1-1" edge="1">
          <mxGeometry x="0.6804" relative="1" as="geometry">
            <mxPoint as="offset"/>
          </mxGeometry>
        </mxCell>
        <mxCell id="OVCIMJOdilcOCL3rlEXn-2" style="edgeStyle=orthogonalEdgeStyle;rounded=0;orthogonalLoop=1;jettySize=auto;html=1;exitX=1;exitY=0.5;exitDx=0;exitDy=0;" parent="0ujQlf1UAHg-DbxSeM3T-1" source="A-ToxL8tSXIMdeSLULrA-3" edge="1">
          <mxGeometry relative="1" as="geometry">
            <mxPoint x="100" y="386" as="targetPoint"/>
            <Array as="points">
              <mxPoint x="-149" y="385"/>
            </Array>
          </mxGeometry>
        </mxCell>
        <mxCell id="TEFJCMFEDFYDByTP8oIz-10" value="transaction email" style="text;html=1;resizable=0;points=[];align=center;verticalAlign=middle;labelBackgroundColor=#ffffff;" parent="OVCIMJOdilcOCL3rlEXn-2" vertex="1" connectable="0">
          <mxGeometry x="0.0188" y="1" relative="1" as="geometry">
            <mxPoint as="offset"/>
          </mxGeometry>
        </mxCell>
        <mxCell id="A-ToxL8tSXIMdeSLULrA-3" value="" style="rounded=0;whiteSpace=wrap;html=1;fillColor=#1ba1e2;strokeColor=#006EAF;fontColor=#ffffff;" parent="0ujQlf1UAHg-DbxSeM3T-1" vertex="1">
          <mxGeometry x="-560" y="250" width="160" height="270" as="geometry"/>
        </mxCell>
        <mxCell id="A-ToxL8tSXIMdeSLULrA-4" value="vii gift card" style="rounded=0;whiteSpace=wrap;html=1;fillColor=none;" parent="0ujQlf1UAHg-DbxSeM3T-1" vertex="1">
          <mxGeometry x="-850" y="639.5" width="100" height="50" as="geometry"/>
        </mxCell>
        <mxCell id="3mG6q12wQhG-oVgzGIt1-0" value="HongKong" style="rounded=0;whiteSpace=wrap;html=1;fillColor=#aa00ff;strokeColor=#7700CC;fontColor=#ffffff;" parent="0ujQlf1UAHg-DbxSeM3T-1" vertex="1">
          <mxGeometry x="-550" y="1275.5" width="130" height="70" as="geometry"/>
        </mxCell>
        <mxCell id="3mG6q12wQhG-oVgzGIt1-1" value="China" style="rounded=0;whiteSpace=wrap;html=1;fillColor=#e51400;strokeColor=#B20000;fontColor=#ffffff;" parent="0ujQlf1UAHg-DbxSeM3T-1" vertex="1">
          <mxGeometry x="-550" y="1446" width="130" height="50" as="geometry"/>
        </mxCell>
        <mxCell id="Z_Hleo1S81oOe08zgRqG-8" value="Cybersource" style="rounded=0;whiteSpace=wrap;html=1;" parent="0ujQlf1UAHg-DbxSeM3T-1" vertex="1">
          <mxGeometry x="-1080" y="1444.5" width="100" height="50" as="geometry"/>
        </mxCell>
        <mxCell id="Z_Hleo1S81oOe08zgRqG-9" value="" style="endArrow=classic;html=1;entryX=1;entryY=0.25;entryDx=0;entryDy=0;exitX=0;exitY=0.171;exitDx=0;exitDy=0;exitPerimeter=0;" parent="0ujQlf1UAHg-DbxSeM3T-1" source="3mG6q12wQhG-oVgzGIt1-0" target="Z_Hleo1S81oOe08zgRqG-8" edge="1">
          <mxGeometry width="50" height="50" relative="1" as="geometry">
            <mxPoint x="-970" y="650" as="sourcePoint"/>
            <mxPoint x="-920" y="600" as="targetPoint"/>
          </mxGeometry>
        </mxCell>
        <mxCell id="Z_Hleo1S81oOe08zgRqG-10" value="CyberSource credit" style="rounded=0;whiteSpace=wrap;html=1;" parent="0ujQlf1UAHg-DbxSeM3T-1" vertex="1">
          <mxGeometry x="-1230" y="1449.5" width="90" height="40" as="geometry"/>
        </mxCell>
        <mxCell id="Z_Hleo1S81oOe08zgRqG-11" value="Ali Pay" style="rounded=0;whiteSpace=wrap;html=1;" parent="0ujQlf1UAHg-DbxSeM3T-1" vertex="1">
          <mxGeometry x="-1080" y="1569.5" width="100" height="40" as="geometry"/>
        </mxCell>
        <mxCell id="Z_Hleo1S81oOe08zgRqG-12" value="WeChat" style="rounded=0;whiteSpace=wrap;html=1;" parent="0ujQlf1UAHg-DbxSeM3T-1" vertex="1">
          <mxGeometry x="-1080" y="1519.5" width="100" height="30" as="geometry"/>
        </mxCell>
        <mxCell id="Z_Hleo1S81oOe08zgRqG-14" value="" style="endArrow=classic;html=1;entryX=1;entryY=0.5;entryDx=0;entryDy=0;exitX=0;exitY=0.5;exitDx=0;exitDy=0;" parent="0ujQlf1UAHg-DbxSeM3T-1" source="Z_Hleo1S81oOe08zgRqG-8" target="Z_Hleo1S81oOe08zgRqG-10" edge="1">
          <mxGeometry width="50" height="50" relative="1" as="geometry">
            <mxPoint x="-1140" y="1509.5" as="sourcePoint"/>
            <mxPoint x="-1090" y="1459.5" as="targetPoint"/>
          </mxGeometry>
        </mxCell>
        <mxCell id="Z_Hleo1S81oOe08zgRqG-22" value="" style="endArrow=classic;html=1;entryX=1;entryY=0.25;entryDx=0;entryDy=0;exitX=0;exitY=0.75;exitDx=0;exitDy=0;" parent="0ujQlf1UAHg-DbxSeM3T-1" source="Z_Hleo1S81oOe08zgRqG-8" edge="1">
          <mxGeometry width="50" height="50" relative="1" as="geometry">
            <mxPoint x="-1130" y="1559.5" as="sourcePoint"/>
            <mxPoint x="-1140" y="1514" as="targetPoint"/>
          </mxGeometry>
        </mxCell>
        <mxCell id="Z_Hleo1S81oOe08zgRqG-23" value="" style="endArrow=classic;html=1;entryX=1;entryY=0.5;entryDx=0;entryDy=0;exitX=0;exitY=0.5;exitDx=0;exitDy=0;" parent="0ujQlf1UAHg-DbxSeM3T-1" source="3mG6q12wQhG-oVgzGIt1-0" target="Z_Hleo1S81oOe08zgRqG-12" edge="1">
          <mxGeometry width="50" height="50" relative="1" as="geometry">
            <mxPoint x="-960" y="710" as="sourcePoint"/>
            <mxPoint x="-910" y="660" as="targetPoint"/>
          </mxGeometry>
        </mxCell>
        <mxCell id="Z_Hleo1S81oOe08zgRqG-24" value="" style="endArrow=classic;html=1;entryX=1;entryY=0.5;entryDx=0;entryDy=0;exitX=0;exitY=0.75;exitDx=0;exitDy=0;" parent="0ujQlf1UAHg-DbxSeM3T-1" source="3mG6q12wQhG-oVgzGIt1-0" target="Z_Hleo1S81oOe08zgRqG-11" edge="1">
          <mxGeometry width="50" height="50" relative="1" as="geometry">
            <mxPoint x="-950" y="760" as="sourcePoint"/>
            <mxPoint x="-900" y="710" as="targetPoint"/>
          </mxGeometry>
        </mxCell>
        <mxCell id="TEFJCMFEDFYDByTP8oIz-2" style="edgeStyle=orthogonalEdgeStyle;rounded=0;orthogonalLoop=1;jettySize=auto;html=1;exitX=0.75;exitY=0;exitDx=0;exitDy=0;entryX=0;entryY=0.75;entryDx=0;entryDy=0;" parent="0ujQlf1UAHg-DbxSeM3T-1" source="Z_Hleo1S81oOe08zgRqG-27" target="hommJBHPnSOby9O2m99H-7" edge="1">
          <mxGeometry relative="1" as="geometry"/>
        </mxCell>
        <mxCell id="TEFJCMFEDFYDByTP8oIz-3" value="decision manager decision&lt;br&gt;after manual review" style="text;html=1;resizable=0;points=[];align=center;verticalAlign=middle;labelBackgroundColor=#ffffff;" parent="TEFJCMFEDFYDByTP8oIz-2" vertex="1" connectable="0">
          <mxGeometry x="0.3056" relative="1" as="geometry">
            <mxPoint as="offset"/>
          </mxGeometry>
        </mxCell>
        <mxCell id="Z_Hleo1S81oOe08zgRqG-27" value="Cybersource" style="rounded=0;whiteSpace=wrap;html=1;" parent="0ujQlf1UAHg-DbxSeM3T-1" vertex="1">
          <mxGeometry x="-1065.5" y="307" width="110" height="68" as="geometry"/>
        </mxCell>
        <mxCell id="TEFJCMFEDFYDByTP8oIz-6" style="edgeStyle=orthogonalEdgeStyle;rounded=0;orthogonalLoop=1;jettySize=auto;html=1;exitX=0;exitY=0.5;exitDx=0;exitDy=0;entryX=0.5;entryY=1;entryDx=0;entryDy=0;" parent="0ujQlf1UAHg-DbxSeM3T-1" source="Z_Hleo1S81oOe08zgRqG-30" target="Z_Hleo1S81oOe08zgRqG-27" edge="1">
          <mxGeometry relative="1" as="geometry"/>
        </mxCell>
        <mxCell id="Z_Hleo1S81oOe08zgRqG-30" value="paypal express" style="rounded=0;whiteSpace=wrap;html=1;" parent="0ujQlf1UAHg-DbxSeM3T-1" vertex="1">
          <mxGeometry x="-850" y="440" width="90" height="55" as="geometry"/>
        </mxCell>
        <mxCell id="Z_Hleo1S81oOe08zgRqG-32" value="Cash on delivery" style="rounded=0;whiteSpace=wrap;html=1;" parent="0ujQlf1UAHg-DbxSeM3T-1" vertex="1">
          <mxGeometry x="-1080" y="1642.5" width="100" height="40" as="geometry"/>
        </mxCell>
        <mxCell id="Z_Hleo1S81oOe08zgRqG-33" value="" style="endArrow=classic;html=1;entryX=1;entryY=0.5;entryDx=0;entryDy=0;exitX=0;exitY=0.5;exitDx=0;exitDy=0;" parent="0ujQlf1UAHg-DbxSeM3T-1" source="RwvYzTifMZ9kqdW15sHg-2" target="Z_Hleo1S81oOe08zgRqG-32" edge="1">
          <mxGeometry width="50" height="50" relative="1" as="geometry">
            <mxPoint x="-830" y="820" as="sourcePoint"/>
            <mxPoint x="-780" y="770" as="targetPoint"/>
          </mxGeometry>
        </mxCell>
        <mxCell id="Z_Hleo1S81oOe08zgRqG-34" value="Cybersource" style="rounded=0;whiteSpace=wrap;html=1;" parent="0ujQlf1UAHg-DbxSeM3T-1" vertex="1">
          <mxGeometry x="-1080" y="1699.5" width="100" height="37" as="geometry"/>
        </mxCell>
        <mxCell id="Z_Hleo1S81oOe08zgRqG-35" value="CyberSource credit" style="rounded=0;whiteSpace=wrap;html=1;" parent="0ujQlf1UAHg-DbxSeM3T-1" vertex="1">
          <mxGeometry x="-1240" y="1698" width="90" height="40" as="geometry"/>
        </mxCell>
        <mxCell id="Z_Hleo1S81oOe08zgRqG-36" value="" style="endArrow=classic;html=1;entryX=1;entryY=0.5;entryDx=0;entryDy=0;exitX=0;exitY=0.5;exitDx=0;exitDy=0;" parent="0ujQlf1UAHg-DbxSeM3T-1" source="Z_Hleo1S81oOe08zgRqG-34" target="Z_Hleo1S81oOe08zgRqG-35" edge="1">
          <mxGeometry width="50" height="50" relative="1" as="geometry">
            <mxPoint x="-1150" y="1749.5" as="sourcePoint"/>
            <mxPoint x="-1100" y="1699.5" as="targetPoint"/>
          </mxGeometry>
        </mxCell>
        <mxCell id="Z_Hleo1S81oOe08zgRqG-37" value="" style="endArrow=classic;html=1;exitX=0;exitY=0.75;exitDx=0;exitDy=0;entryX=1;entryY=0.5;entryDx=0;entryDy=0;" parent="0ujQlf1UAHg-DbxSeM3T-1" source="RwvYzTifMZ9kqdW15sHg-2" target="Z_Hleo1S81oOe08zgRqG-34" edge="1">
          <mxGeometry width="50" height="50" relative="1" as="geometry">
            <mxPoint x="-800" y="840" as="sourcePoint"/>
            <mxPoint x="-750" y="790" as="targetPoint"/>
          </mxGeometry>
        </mxCell>
        <mxCell id="Z_Hleo1S81oOe08zgRqG-38" value="paypal express" style="rounded=0;whiteSpace=wrap;html=1;" parent="0ujQlf1UAHg-DbxSeM3T-1" vertex="1">
          <mxGeometry x="-1240" y="1752.5" width="90" height="30" as="geometry"/>
        </mxCell>
        <mxCell id="Z_Hleo1S81oOe08zgRqG-39" value="" style="endArrow=classic;html=1;entryX=1;entryY=0.5;entryDx=0;entryDy=0;exitX=0;exitY=0.75;exitDx=0;exitDy=0;" parent="0ujQlf1UAHg-DbxSeM3T-1" source="Z_Hleo1S81oOe08zgRqG-34" target="Z_Hleo1S81oOe08zgRqG-38" edge="1">
          <mxGeometry width="50" height="50" relative="1" as="geometry">
            <mxPoint x="-1050" y="1819.5" as="sourcePoint"/>
            <mxPoint x="-1000" y="1769.5" as="targetPoint"/>
          </mxGeometry>
        </mxCell>
        <mxCell id="Z_Hleo1S81oOe08zgRqG-41" value="unionpay" style="rounded=0;whiteSpace=wrap;html=1;" parent="0ujQlf1UAHg-DbxSeM3T-1" vertex="1">
          <mxGeometry x="-1240" y="1832.5" width="100" height="47" as="geometry"/>
        </mxCell>
        <mxCell id="Z_Hleo1S81oOe08zgRqG-42" value="WeChat Mobile Pay" style="rounded=0;whiteSpace=wrap;html=1;" parent="0ujQlf1UAHg-DbxSeM3T-1" vertex="1">
          <mxGeometry x="-1240" y="1912.5" width="100" height="47" as="geometry"/>
        </mxCell>
        <mxCell id="Z_Hleo1S81oOe08zgRqG-45" value="wosai" style="rounded=0;whiteSpace=wrap;html=1;" parent="0ujQlf1UAHg-DbxSeM3T-1" vertex="1">
          <mxGeometry x="-1080" y="1832.5" width="100" height="47" as="geometry"/>
        </mxCell>
        <mxCell id="Z_Hleo1S81oOe08zgRqG-46" value="" style="endArrow=classic;html=1;entryX=1;entryY=0.5;entryDx=0;entryDy=0;exitX=0;exitY=0.5;exitDx=0;exitDy=0;" parent="0ujQlf1UAHg-DbxSeM3T-1" source="3mG6q12wQhG-oVgzGIt1-1" target="Z_Hleo1S81oOe08zgRqG-45" edge="1">
          <mxGeometry width="50" height="50" relative="1" as="geometry">
            <mxPoint x="-880" y="1020" as="sourcePoint"/>
            <mxPoint x="-830" y="970" as="targetPoint"/>
          </mxGeometry>
        </mxCell>
        <mxCell id="Z_Hleo1S81oOe08zgRqG-47" value="" style="endArrow=classic;html=1;entryX=1;entryY=0.5;entryDx=0;entryDy=0;exitX=0;exitY=0.5;exitDx=0;exitDy=0;" parent="0ujQlf1UAHg-DbxSeM3T-1" source="Z_Hleo1S81oOe08zgRqG-45" target="Z_Hleo1S81oOe08zgRqG-41" edge="1">
          <mxGeometry width="50" height="50" relative="1" as="geometry">
            <mxPoint x="-1040" y="1999.5" as="sourcePoint"/>
            <mxPoint x="-990" y="1949.5" as="targetPoint"/>
          </mxGeometry>
        </mxCell>
        <mxCell id="Z_Hleo1S81oOe08zgRqG-48" value="" style="endArrow=classic;html=1;entryX=1;entryY=0.5;entryDx=0;entryDy=0;exitX=0;exitY=0.75;exitDx=0;exitDy=0;" parent="0ujQlf1UAHg-DbxSeM3T-1" source="Z_Hleo1S81oOe08zgRqG-45" target="Z_Hleo1S81oOe08zgRqG-42" edge="1">
          <mxGeometry width="50" height="50" relative="1" as="geometry">
            <mxPoint x="-1100" y="1522.5" as="sourcePoint"/>
            <mxPoint x="-1050" y="1472.5" as="targetPoint"/>
          </mxGeometry>
        </mxCell>
        <mxCell id="Z_Hleo1S81oOe08zgRqG-50" value="paypal express" style="rounded=0;whiteSpace=wrap;html=1;" parent="0ujQlf1UAHg-DbxSeM3T-1" vertex="1">
          <mxGeometry x="-1230" y="1504.5" width="90" height="30" as="geometry"/>
        </mxCell>
        <mxCell id="LXgEWM2FlRmFWtIx2Ous-0" value="brightcove" style="rounded=0;whiteSpace=wrap;html=1;" parent="0ujQlf1UAHg-DbxSeM3T-1" vertex="1">
          <mxGeometry x="-150" y="451.8571428571429" width="90" height="40" as="geometry"/>
        </mxCell>
        <mxCell id="LXgEWM2FlRmFWtIx2Ous-1" value="" style="rounded=0;whiteSpace=wrap;html=1;fillColor=none;" parent="0ujQlf1UAHg-DbxSeM3T-1" vertex="1">
          <mxGeometry x="-160" y="440" width="110" height="120" as="geometry"/>
        </mxCell>
        <mxCell id="PinnsFXiMRAGbYlJQDG_-0" value="Monatate" style="rounded=0;whiteSpace=wrap;html=1;fillColor=none;" parent="0ujQlf1UAHg-DbxSeM3T-1" vertex="1">
          <mxGeometry x="-160" y="819" width="120" height="51" as="geometry"/>
        </mxCell>
        <mxCell id="PinnsFXiMRAGbYlJQDG_-3" value="google product feed" style="rounded=0;whiteSpace=wrap;html=1;fillColor=none;" parent="0ujQlf1UAHg-DbxSeM3T-1" vertex="1">
          <mxGeometry x="-160" y="920" width="129" height="59" as="geometry"/>
        </mxCell>
        <mxCell id="PinnsFXiMRAGbYlJQDG_-5" value="criteo product feed" style="rounded=0;whiteSpace=wrap;html=1;fillColor=none;" parent="0ujQlf1UAHg-DbxSeM3T-1" vertex="1">
          <mxGeometry x="-160" y="1000" width="129" height="59" as="geometry"/>
        </mxCell>
        <mxCell id="4p0Vdr-dvvmAbISPuYWF-6" value="" style="edgeStyle=orthogonalEdgeStyle;rounded=0;orthogonalLoop=1;jettySize=auto;html=1;endArrow=block;endFill=1;strokeWidth=1;entryX=0.25;entryY=0;entryDx=0;entryDy=0;" parent="0ujQlf1UAHg-DbxSeM3T-1" target="hommJBHPnSOby9O2m99H-7" edge="1">
          <mxGeometry relative="1" as="geometry">
            <mxPoint x="-480" y="120" as="targetPoint"/>
            <mxPoint x="-660" y="-15" as="sourcePoint"/>
          </mxGeometry>
        </mxCell>
        <mxCell id="mTDmJCWKa9Tn-28nHdp4-6" value="AfterPay" style="rounded=0;whiteSpace=wrap;html=1;" parent="0ujQlf1UAHg-DbxSeM3T-1" vertex="1">
          <mxGeometry x="-850" y="210" width="120" height="60" as="geometry"/>
        </mxCell>
        <mxCell id="mTDmJCWKa9Tn-28nHdp4-10" value="AU" style="rounded=0;whiteSpace=wrap;html=1;" parent="0ujQlf1UAHg-DbxSeM3T-1" vertex="1">
          <mxGeometry x="-540" y="277" width="120" height="60" as="geometry"/>
        </mxCell>
        <mxCell id="mTDmJCWKa9Tn-28nHdp4-11" value="NZ" style="rounded=0;whiteSpace=wrap;html=1;" parent="0ujQlf1UAHg-DbxSeM3T-1" vertex="1">
          <mxGeometry x="-540" y="440" width="120" height="60" as="geometry"/>
        </mxCell>
        <mxCell id="2QGgraquKHZNnu28zBSW-0" value="product&lt;br&gt;images" style="edgeStyle=orthogonalEdgeStyle;rounded=0;orthogonalLoop=1;jettySize=auto;html=1;entryX=-0.025;entryY=0.209;entryDx=0;entryDy=0;entryPerimeter=0;strokeWidth=1;exitX=1;exitY=0.25;exitDx=0;exitDy=0;" parent="0ujQlf1UAHg-DbxSeM3T-1" source="2QGgraquKHZNnu28zBSW-4" target="2QGgraquKHZNnu28zBSW-5" edge="1">
          <mxGeometry relative="1" as="geometry"/>
        </mxCell>
        <mxCell id="2QGgraquKHZNnu28zBSW-3" value="price&lt;br&gt;book" style="edgeStyle=orthogonalEdgeStyle;rounded=0;orthogonalLoop=1;jettySize=auto;html=1;exitX=1;exitY=0.5;exitDx=0;exitDy=0;strokeWidth=1;" parent="0ujQlf1UAHg-DbxSeM3T-1" source="2QGgraquKHZNnu28zBSW-4" edge="1">
          <mxGeometry relative="1" as="geometry">
            <mxPoint x="-720" y="-18" as="targetPoint"/>
            <Array as="points">
              <mxPoint x="-720" y="-18"/>
            </Array>
          </mxGeometry>
        </mxCell>
        <mxCell id="2QGgraquKHZNnu28zBSW-6" value="item master" style="edgeStyle=orthogonalEdgeStyle;rounded=0;orthogonalLoop=1;jettySize=auto;html=1;exitX=1;exitY=0.75;exitDx=0;exitDy=0;entryX=0.008;entryY=0.689;entryDx=0;entryDy=0;entryPerimeter=0;" parent="0ujQlf1UAHg-DbxSeM3T-1" source="2QGgraquKHZNnu28zBSW-4" target="2QGgraquKHZNnu28zBSW-5" edge="1">
          <mxGeometry relative="1" as="geometry"/>
        </mxCell>
        <mxCell id="2QGgraquKHZNnu28zBSW-4" value="library" style="rounded=0;whiteSpace=wrap;html=1;fillColor=none;" parent="0ujQlf1UAHg-DbxSeM3T-1" vertex="1">
          <mxGeometry x="-920.5" y="-97.5" width="70" height="160" as="geometry"/>
        </mxCell>
        <mxCell id="2QGgraquKHZNnu28zBSW-5" value="salsify" style="rounded=0;whiteSpace=wrap;html=1;fillColor=none;" parent="0ujQlf1UAHg-DbxSeM3T-1" vertex="1">
          <mxGeometry x="-719.5" y="-97.5" width="60" height="175" as="geometry"/>
        </mxCell>
        <mxCell id="uiVIuUUbGgQi74KA9Ir1-3" style="edgeStyle=orthogonalEdgeStyle;rounded=0;orthogonalLoop=1;jettySize=auto;html=1;exitX=1;exitY=0.5;exitDx=0;exitDy=0;entryX=0;entryY=0.5;entryDx=0;entryDy=0;" parent="0ujQlf1UAHg-DbxSeM3T-1" source="_1aaB_1__WVES5odrp0--0" target="Z_Hleo1S81oOe08zgRqG-27" edge="1">
          <mxGeometry relative="1" as="geometry"/>
        </mxCell>
        <mxCell id="_1aaB_1__WVES5odrp0--0" value="financial service manual review" style="rounded=0;whiteSpace=wrap;html=1;fillColor=#f8cecc;strokeColor=#b85450;" parent="0ujQlf1UAHg-DbxSeM3T-1" vertex="1">
          <mxGeometry x="-1275.5" y="298.5" width="120" height="85" as="geometry"/>
        </mxCell>
        <mxCell id="RUVx0gtZIDW-YWZjfqNK-18" value="" style="edgeStyle=orthogonalEdgeStyle;rounded=0;orthogonalLoop=1;jettySize=auto;html=1;" parent="0ujQlf1UAHg-DbxSeM3T-1" source="RUVx0gtZIDW-YWZjfqNK-10" target="RUVx0gtZIDW-YWZjfqNK-17" edge="1">
          <mxGeometry relative="1" as="geometry"/>
        </mxCell>
        <mxCell id="RUVx0gtZIDW-YWZjfqNK-20" value="" style="edgeStyle=orthogonalEdgeStyle;rounded=0;orthogonalLoop=1;jettySize=auto;html=1;" parent="0ujQlf1UAHg-DbxSeM3T-1" source="RUVx0gtZIDW-YWZjfqNK-10" target="RUVx0gtZIDW-YWZjfqNK-19" edge="1">
          <mxGeometry relative="1" as="geometry"/>
        </mxCell>
        <mxCell id="TEFJCMFEDFYDByTP8oIz-9" style="edgeStyle=orthogonalEdgeStyle;rounded=0;orthogonalLoop=1;jettySize=auto;html=1;exitX=0;exitY=0.75;exitDx=0;exitDy=0;entryX=1;entryY=0.5;entryDx=0;entryDy=0;" parent="0ujQlf1UAHg-DbxSeM3T-1" source="RUVx0gtZIDW-YWZjfqNK-10" target="TEFJCMFEDFYDByTP8oIz-8" edge="1">
          <mxGeometry relative="1" as="geometry"/>
        </mxCell>
        <mxCell id="RUVx0gtZIDW-YWZjfqNK-10" value="vii gift card &lt;br&gt;purchase" style="rounded=0;whiteSpace=wrap;html=1;" parent="0ujQlf1UAHg-DbxSeM3T-1" vertex="1">
          <mxGeometry x="-850" y="720" width="100" height="62" as="geometry"/>
        </mxCell>
        <mxCell id="RUVx0gtZIDW-YWZjfqNK-19" value="PGC delivery" style="rounded=0;whiteSpace=wrap;html=1;" parent="0ujQlf1UAHg-DbxSeM3T-1" vertex="1">
          <mxGeometry x="-850" y="870" width="100" height="62" as="geometry"/>
        </mxCell>
        <mxCell id="RUVx0gtZIDW-YWZjfqNK-17" value="EGC delivery" style="rounded=0;whiteSpace=wrap;html=1;" parent="0ujQlf1UAHg-DbxSeM3T-1" vertex="1">
          <mxGeometry x="-1030" y="720" width="100" height="62" as="geometry"/>
        </mxCell>
        <mxCell id="uiVIuUUbGgQi74KA9Ir1-1" value="" style="rounded=0;whiteSpace=wrap;html=1;fillColor=none;" parent="0ujQlf1UAHg-DbxSeM3T-1" vertex="1">
          <mxGeometry x="-170" y="902" width="150" height="178" as="geometry"/>
        </mxCell>
        <mxCell id="uiVIuUUbGgQi74KA9Ir1-7" style="edgeStyle=orthogonalEdgeStyle;rounded=0;orthogonalLoop=1;jettySize=auto;html=1;exitX=0.75;exitY=0;exitDx=0;exitDy=0;" parent="0ujQlf1UAHg-DbxSeM3T-1" source="uiVIuUUbGgQi74KA9Ir1-5" edge="1">
          <mxGeometry relative="1" as="geometry">
            <mxPoint x="170" y="-250.00000000000023" as="targetPoint"/>
          </mxGeometry>
        </mxCell>
        <mxCell id="uiVIuUUbGgQi74KA9Ir1-8" value="gift card&amp;nbsp;&lt;br&gt;refund" style="text;html=1;resizable=0;points=[];align=center;verticalAlign=middle;labelBackgroundColor=#ffffff;" parent="uiVIuUUbGgQi74KA9Ir1-7" vertex="1" connectable="0">
          <mxGeometry x="-0.2532" y="-4" relative="1" as="geometry">
            <mxPoint x="-4" y="-52" as="offset"/>
          </mxGeometry>
        </mxCell>
        <mxCell id="uiVIuUUbGgQi74KA9Ir1-5" value="refund" style="rounded=0;whiteSpace=wrap;html=1;fillColor=none;" parent="0ujQlf1UAHg-DbxSeM3T-1" vertex="1">
          <mxGeometry x="80" y="-40" width="120" height="40" as="geometry"/>
        </mxCell>
        <mxCell id="uiVIuUUbGgQi74KA9Ir1-9" value="new PGC/ EGC" style="rounded=0;whiteSpace=wrap;html=1;fillColor=none;" parent="0ujQlf1UAHg-DbxSeM3T-1" vertex="1">
          <mxGeometry x="110" y="-310" width="120" height="60" as="geometry"/>
        </mxCell>
        <mxCell id="TEFJCMFEDFYDByTP8oIz-8" value="confirmation email" style="rounded=0;whiteSpace=wrap;html=1;fillColor=none;" parent="0ujQlf1UAHg-DbxSeM3T-1" vertex="1">
          <mxGeometry x="-1030" y="800" width="100" height="60" as="geometry"/>
        </mxCell>
      </root>
    </mxGraphModel>
  </diagram>
  <diagram id="flEDfQ80bX9VU2n6ByOx" name="emea">
    <mxGraphModel dx="1646" dy="1655" grid="1" gridSize="10" guides="1" tooltips="1" connect="1" arrows="1" fold="1" page="1" pageScale="1" pageWidth="850" pageHeight="1100" math="0" shadow="0">
      <root>
        <mxCell id="6wyxrHHf_I9BklUDtam6-0"/>
        <mxCell id="6wyxrHHf_I9BklUDtam6-1" parent="6wyxrHHf_I9BklUDtam6-0"/>
        <mxCell id="O-fm7lQViK4v1r6Bbu7A-8" value="" style="rounded=0;whiteSpace=wrap;html=1;shadow=0;glass=0;comic=0;fillColor=#d5e8d4;strokeColor=#82b366;" vertex="1" parent="6wyxrHHf_I9BklUDtam6-1">
          <mxGeometry x="-80" y="140" width="320" height="370" as="geometry"/>
        </mxCell>
        <mxCell id="85VXtthlD1fGDL5kLzPd-5" value="order" style="edgeStyle=orthogonalEdgeStyle;rounded=0;orthogonalLoop=1;jettySize=auto;html=1;exitX=1;exitY=0.25;exitDx=0;exitDy=0;entryX=0;entryY=0.5;entryDx=0;entryDy=0;" edge="1" parent="6wyxrHHf_I9BklUDtam6-1" source="85VXtthlD1fGDL5kLzPd-0" target="85VXtthlD1fGDL5kLzPd-4">
          <mxGeometry relative="1" as="geometry"/>
        </mxCell>
        <mxCell id="P7eWk-2O3zi6pnJXQDkd-2" style="edgeStyle=orthogonalEdgeStyle;rounded=0;orthogonalLoop=1;jettySize=auto;html=1;exitX=1;exitY=0.659;exitDx=0;exitDy=0;entryX=0;entryY=0.5;entryDx=0;entryDy=0;exitPerimeter=0;" edge="1" parent="6wyxrHHf_I9BklUDtam6-1" source="85VXtthlD1fGDL5kLzPd-0" target="P7eWk-2O3zi6pnJXQDkd-0">
          <mxGeometry relative="1" as="geometry"/>
        </mxCell>
        <mxCell id="P7eWk-2O3zi6pnJXQDkd-3" value="item master" style="text;html=1;resizable=0;points=[];align=center;verticalAlign=middle;labelBackgroundColor=#ffffff;" vertex="1" connectable="0" parent="P7eWk-2O3zi6pnJXQDkd-2">
          <mxGeometry x="-0.0252" y="3" relative="1" as="geometry">
            <mxPoint as="offset"/>
          </mxGeometry>
        </mxCell>
        <mxCell id="O-fm7lQViK4v1r6Bbu7A-6" style="edgeStyle=orthogonalEdgeStyle;rounded=0;orthogonalLoop=1;jettySize=auto;html=1;exitX=1;exitY=0.75;exitDx=0;exitDy=0;entryX=0;entryY=0.25;entryDx=0;entryDy=0;" edge="1" parent="6wyxrHHf_I9BklUDtam6-1" source="85VXtthlD1fGDL5kLzPd-0" target="O-fm7lQViK4v1r6Bbu7A-0">
          <mxGeometry relative="1" as="geometry"/>
        </mxCell>
        <mxCell id="UouJHBfyKLirYMu-k9Mv-0" style="edgeStyle=orthogonalEdgeStyle;rounded=0;orthogonalLoop=1;jettySize=auto;html=1;" edge="1" parent="6wyxrHHf_I9BklUDtam6-1" source="85VXtthlD1fGDL5kLzPd-0">
          <mxGeometry relative="1" as="geometry">
            <mxPoint x="450" y="660" as="targetPoint"/>
          </mxGeometry>
        </mxCell>
        <mxCell id="RdxfAKkXlBSZsuNeV5RY-0" value="wishlist" style="text;html=1;resizable=0;points=[];align=center;verticalAlign=middle;labelBackgroundColor=#ffffff;" vertex="1" connectable="0" parent="UouJHBfyKLirYMu-k9Mv-0">
          <mxGeometry x="0.0857" relative="1" as="geometry">
            <mxPoint as="offset"/>
          </mxGeometry>
        </mxCell>
        <mxCell id="bDgIwSjzoMuQB-GT5Si0-0" style="edgeStyle=orthogonalEdgeStyle;rounded=0;orthogonalLoop=1;jettySize=auto;html=1;exitX=0.25;exitY=1;exitDx=0;exitDy=0;entryX=0.306;entryY=0;entryDx=0;entryDy=0;entryPerimeter=0;" edge="1" parent="6wyxrHHf_I9BklUDtam6-1" source="85VXtthlD1fGDL5kLzPd-0" target="wX7sTsC1IoLnyoUYT3rY-0">
          <mxGeometry relative="1" as="geometry"/>
        </mxCell>
        <mxCell id="bDgIwSjzoMuQB-GT5Si0-1" value="email&lt;br&gt;signup" style="text;html=1;resizable=0;points=[];align=center;verticalAlign=middle;labelBackgroundColor=#ffffff;" vertex="1" connectable="0" parent="bDgIwSjzoMuQB-GT5Si0-0">
          <mxGeometry x="-0.3333" y="-1" relative="1" as="geometry">
            <mxPoint as="offset"/>
          </mxGeometry>
        </mxCell>
        <mxCell id="85VXtthlD1fGDL5kLzPd-0" value="SFCC UK" style="rounded=0;whiteSpace=wrap;html=1;fillColor=#1ba1e2;strokeColor=#006EAF;fontColor=#ffffff;" vertex="1" parent="6wyxrHHf_I9BklUDtam6-1">
          <mxGeometry x="380" y="200" width="140" height="320" as="geometry"/>
        </mxCell>
        <mxCell id="85VXtthlD1fGDL5kLzPd-3" style="edgeStyle=orthogonalEdgeStyle;rounded=0;orthogonalLoop=1;jettySize=auto;html=1;entryX=1;entryY=0.5;entryDx=0;entryDy=0;" edge="1" parent="6wyxrHHf_I9BklUDtam6-1" target="85VXtthlD1fGDL5kLzPd-2">
          <mxGeometry relative="1" as="geometry">
            <mxPoint x="380" y="241" as="sourcePoint"/>
          </mxGeometry>
        </mxCell>
        <mxCell id="85VXtthlD1fGDL5kLzPd-11" value="redemption" style="text;html=1;resizable=0;points=[];align=center;verticalAlign=middle;labelBackgroundColor=#ffffff;" vertex="1" connectable="0" parent="85VXtthlD1fGDL5kLzPd-3">
          <mxGeometry x="-0.0521" relative="1" as="geometry">
            <mxPoint as="offset"/>
          </mxGeometry>
        </mxCell>
        <mxCell id="85VXtthlD1fGDL5kLzPd-12" value="check balance" style="text;html=1;resizable=0;points=[];align=center;verticalAlign=middle;labelBackgroundColor=#ffffff;" vertex="1" connectable="0" parent="85VXtthlD1fGDL5kLzPd-3">
          <mxGeometry x="-0.1671" y="4" relative="1" as="geometry">
            <mxPoint as="offset"/>
          </mxGeometry>
        </mxCell>
        <mxCell id="bdvWYH8bgl_X668KNpvw-1" style="edgeStyle=orthogonalEdgeStyle;rounded=0;orthogonalLoop=1;jettySize=auto;html=1;entryX=1.014;entryY=0.114;entryDx=0;entryDy=0;entryPerimeter=0;" edge="1" parent="6wyxrHHf_I9BklUDtam6-1" target="bdvWYH8bgl_X668KNpvw-0">
          <mxGeometry relative="1" as="geometry">
            <mxPoint x="380" y="258" as="sourcePoint"/>
            <mxPoint x="210" y="250" as="targetPoint"/>
          </mxGeometry>
        </mxCell>
        <mxCell id="bdvWYH8bgl_X668KNpvw-2" style="edgeStyle=orthogonalEdgeStyle;rounded=0;orthogonalLoop=1;jettySize=auto;html=1;entryX=1;entryY=0.393;entryDx=0;entryDy=0;entryPerimeter=0;" edge="1" parent="6wyxrHHf_I9BklUDtam6-1" target="bdvWYH8bgl_X668KNpvw-0">
          <mxGeometry relative="1" as="geometry">
            <mxPoint x="380" y="271" as="sourcePoint"/>
          </mxGeometry>
        </mxCell>
        <mxCell id="bdvWYH8bgl_X668KNpvw-3" style="edgeStyle=orthogonalEdgeStyle;rounded=0;orthogonalLoop=1;jettySize=auto;html=1;entryX=1;entryY=0.75;entryDx=0;entryDy=0;" edge="1" parent="6wyxrHHf_I9BklUDtam6-1" target="bdvWYH8bgl_X668KNpvw-0">
          <mxGeometry relative="1" as="geometry">
            <mxPoint x="380" y="288" as="sourcePoint"/>
          </mxGeometry>
        </mxCell>
        <mxCell id="KZ4mBXxhlnbdgaMbsIXb-14" value="PayPal" style="rounded=0;whiteSpace=wrap;html=1;" vertex="1" parent="6wyxrHHf_I9BklUDtam6-1">
          <mxGeometry x="-55" y="260" width="110" height="40" as="geometry"/>
        </mxCell>
        <mxCell id="85VXtthlD1fGDL5kLzPd-2" value="StoreFinancial" style="rounded=0;whiteSpace=wrap;html=1;" vertex="1" parent="6wyxrHHf_I9BklUDtam6-1">
          <mxGeometry x="110" y="30" width="120" height="60" as="geometry"/>
        </mxCell>
        <mxCell id="85VXtthlD1fGDL5kLzPd-7" style="edgeStyle=orthogonalEdgeStyle;rounded=0;orthogonalLoop=1;jettySize=auto;html=1;exitX=1;exitY=0.5;exitDx=0;exitDy=0;entryX=0;entryY=0.5;entryDx=0;entryDy=0;" edge="1" parent="6wyxrHHf_I9BklUDtam6-1" source="85VXtthlD1fGDL5kLzPd-4" target="85VXtthlD1fGDL5kLzPd-6">
          <mxGeometry relative="1" as="geometry"/>
        </mxCell>
        <mxCell id="85VXtthlD1fGDL5kLzPd-8" value="order" style="text;html=1;resizable=0;points=[];align=center;verticalAlign=middle;labelBackgroundColor=#ffffff;" vertex="1" connectable="0" parent="85VXtthlD1fGDL5kLzPd-7">
          <mxGeometry x="0.1684" y="-4" relative="1" as="geometry">
            <mxPoint x="-1" y="-4" as="offset"/>
          </mxGeometry>
        </mxCell>
        <mxCell id="85VXtthlD1fGDL5kLzPd-4" value="ftp.pandora.net" style="rounded=0;whiteSpace=wrap;html=1;" vertex="1" parent="6wyxrHHf_I9BklUDtam6-1">
          <mxGeometry x="640" y="250" width="120" height="60" as="geometry"/>
        </mxCell>
        <mxCell id="85VXtthlD1fGDL5kLzPd-9" value="shipping&amp;nbsp;&lt;br&gt;confirmation" style="edgeStyle=orthogonalEdgeStyle;rounded=0;orthogonalLoop=1;jettySize=auto;html=1;exitX=0.5;exitY=1;exitDx=0;exitDy=0;entryX=0.668;entryY=0.015;entryDx=0;entryDy=0;entryPerimeter=0;" edge="1" parent="6wyxrHHf_I9BklUDtam6-1" source="85VXtthlD1fGDL5kLzPd-6" target="85VXtthlD1fGDL5kLzPd-10">
          <mxGeometry relative="1" as="geometry">
            <mxPoint x="1090" y="550" as="targetPoint"/>
          </mxGeometry>
        </mxCell>
        <mxCell id="KZ4mBXxhlnbdgaMbsIXb-8" style="edgeStyle=orthogonalEdgeStyle;rounded=0;orthogonalLoop=1;jettySize=auto;html=1;exitX=1;exitY=0.5;exitDx=0;exitDy=0;entryX=0;entryY=0.5;entryDx=0;entryDy=0;" edge="1" parent="6wyxrHHf_I9BklUDtam6-1" source="85VXtthlD1fGDL5kLzPd-6" target="KZ4mBXxhlnbdgaMbsIXb-7">
          <mxGeometry relative="1" as="geometry"/>
        </mxCell>
        <mxCell id="KZ4mBXxhlnbdgaMbsIXb-9" value="order" style="text;html=1;resizable=0;points=[];align=center;verticalAlign=middle;labelBackgroundColor=#ffffff;" vertex="1" connectable="0" parent="KZ4mBXxhlnbdgaMbsIXb-8">
          <mxGeometry x="0.2118" y="-2" relative="1" as="geometry">
            <mxPoint x="-3" y="-2" as="offset"/>
          </mxGeometry>
        </mxCell>
        <mxCell id="pYXfFOGdg0F5nLQ-RAcg-1" value="egc" style="edgeStyle=orthogonalEdgeStyle;rounded=0;orthogonalLoop=1;jettySize=auto;html=1;exitX=0.25;exitY=1;exitDx=0;exitDy=0;entryX=0.25;entryY=0;entryDx=0;entryDy=0;" edge="1" parent="6wyxrHHf_I9BklUDtam6-1" source="85VXtthlD1fGDL5kLzPd-6" target="85VXtthlD1fGDL5kLzPd-10">
          <mxGeometry x="-0.3846" relative="1" as="geometry">
            <mxPoint as="offset"/>
          </mxGeometry>
        </mxCell>
        <mxCell id="P7eWk-2O3zi6pnJXQDkd-1" style="edgeStyle=orthogonalEdgeStyle;rounded=0;orthogonalLoop=1;jettySize=auto;html=1;exitX=0;exitY=0.75;exitDx=0;exitDy=0;entryX=1;entryY=0.5;entryDx=0;entryDy=0;" edge="1" parent="6wyxrHHf_I9BklUDtam6-1" source="85VXtthlD1fGDL5kLzPd-6" target="P7eWk-2O3zi6pnJXQDkd-0">
          <mxGeometry relative="1" as="geometry"/>
        </mxCell>
        <mxCell id="O-fm7lQViK4v1r6Bbu7A-9" style="edgeStyle=orthogonalEdgeStyle;rounded=0;orthogonalLoop=1;jettySize=auto;html=1;exitX=0.25;exitY=0;exitDx=0;exitDy=0;entryX=0.25;entryY=0;entryDx=0;entryDy=0;" edge="1" parent="6wyxrHHf_I9BklUDtam6-1" source="85VXtthlD1fGDL5kLzPd-6" target="O-fm7lQViK4v1r6Bbu7A-8">
          <mxGeometry relative="1" as="geometry">
            <Array as="points">
              <mxPoint x="1010" y="-160"/>
              <mxPoint y="-160"/>
            </Array>
          </mxGeometry>
        </mxCell>
        <mxCell id="MEpA_-BZbx4IFnX9PbRB-0" value="settlement" style="text;html=1;resizable=0;points=[];align=center;verticalAlign=middle;labelBackgroundColor=#ffffff;" vertex="1" connectable="0" parent="O-fm7lQViK4v1r6Bbu7A-9">
          <mxGeometry x="0.0401" y="1" relative="1" as="geometry">
            <mxPoint as="offset"/>
          </mxGeometry>
        </mxCell>
        <mxCell id="11USWGA8PSUc_wCYDjY7-0" style="edgeStyle=orthogonalEdgeStyle;rounded=0;orthogonalLoop=1;jettySize=auto;html=1;entryX=0.5;entryY=0;entryDx=0;entryDy=0;exitX=0.167;exitY=0.005;exitDx=0;exitDy=0;exitPerimeter=0;" edge="1" parent="6wyxrHHf_I9BklUDtam6-1" source="85VXtthlD1fGDL5kLzPd-6" target="85VXtthlD1fGDL5kLzPd-2">
          <mxGeometry relative="1" as="geometry">
            <mxPoint x="300" y="-90" as="targetPoint"/>
            <Array as="points">
              <mxPoint x="990" y="-130"/>
              <mxPoint x="170" y="-130"/>
            </Array>
          </mxGeometry>
        </mxCell>
        <mxCell id="85VXtthlD1fGDL5kLzPd-6" value="OMS" style="rounded=0;whiteSpace=wrap;html=1;" vertex="1" parent="6wyxrHHf_I9BklUDtam6-1">
          <mxGeometry x="950" y="170" width="240" height="210" as="geometry"/>
        </mxCell>
        <mxCell id="85VXtthlD1fGDL5kLzPd-10" value="SFMC" style="rounded=0;whiteSpace=wrap;html=1;" vertex="1" parent="6wyxrHHf_I9BklUDtam6-1">
          <mxGeometry x="1010" y="570" width="120" height="60" as="geometry"/>
        </mxCell>
        <mxCell id="KZ4mBXxhlnbdgaMbsIXb-3" value="price&lt;br&gt;book" style="edgeStyle=orthogonalEdgeStyle;rounded=0;orthogonalLoop=1;jettySize=auto;html=1;exitX=1;exitY=0.5;exitDx=0;exitDy=0;entryX=0;entryY=0.5;entryDx=0;entryDy=0;strokeWidth=1;" edge="1" parent="6wyxrHHf_I9BklUDtam6-1" source="KZ4mBXxhlnbdgaMbsIXb-4" target="KZ4mBXxhlnbdgaMbsIXb-5">
          <mxGeometry relative="1" as="geometry"/>
        </mxCell>
        <mxCell id="pYXfFOGdg0F5nLQ-RAcg-2" value="item &lt;br&gt;master" style="edgeStyle=orthogonalEdgeStyle;rounded=0;orthogonalLoop=1;jettySize=auto;html=1;exitX=1;exitY=0.75;exitDx=0;exitDy=0;" edge="1" parent="6wyxrHHf_I9BklUDtam6-1" source="KZ4mBXxhlnbdgaMbsIXb-4">
          <mxGeometry relative="1" as="geometry">
            <mxPoint x="560" y="15" as="targetPoint"/>
          </mxGeometry>
        </mxCell>
        <mxCell id="pYXfFOGdg0F5nLQ-RAcg-4" style="edgeStyle=orthogonalEdgeStyle;rounded=0;orthogonalLoop=1;jettySize=auto;html=1;entryX=0;entryY=0.25;entryDx=0;entryDy=0;exitX=0.994;exitY=0.232;exitDx=0;exitDy=0;exitPerimeter=0;" edge="1" parent="6wyxrHHf_I9BklUDtam6-1" source="KZ4mBXxhlnbdgaMbsIXb-4" target="KZ4mBXxhlnbdgaMbsIXb-5">
          <mxGeometry relative="1" as="geometry">
            <mxPoint x="440" y="-66" as="sourcePoint"/>
          </mxGeometry>
        </mxCell>
        <mxCell id="pYXfFOGdg0F5nLQ-RAcg-5" value="product &lt;br&gt;image" style="text;html=1;resizable=0;points=[];align=center;verticalAlign=middle;labelBackgroundColor=#ffffff;" vertex="1" connectable="0" parent="pYXfFOGdg0F5nLQ-RAcg-4">
          <mxGeometry x="0.0272" relative="1" as="geometry">
            <mxPoint as="offset"/>
          </mxGeometry>
        </mxCell>
        <mxCell id="KZ4mBXxhlnbdgaMbsIXb-4" value="library" style="rounded=0;whiteSpace=wrap;html=1;fillColor=none;" vertex="1" parent="6wyxrHHf_I9BklUDtam6-1">
          <mxGeometry x="370" y="-105" width="70" height="160" as="geometry"/>
        </mxCell>
        <mxCell id="KZ4mBXxhlnbdgaMbsIXb-6" style="edgeStyle=orthogonalEdgeStyle;rounded=0;orthogonalLoop=1;jettySize=auto;html=1;" edge="1" parent="6wyxrHHf_I9BklUDtam6-1" source="KZ4mBXxhlnbdgaMbsIXb-5" target="85VXtthlD1fGDL5kLzPd-4">
          <mxGeometry relative="1" as="geometry"/>
        </mxCell>
        <mxCell id="KZ4mBXxhlnbdgaMbsIXb-5" value="salsify" style="rounded=0;whiteSpace=wrap;html=1;fillColor=none;" vertex="1" parent="6wyxrHHf_I9BklUDtam6-1">
          <mxGeometry x="560.5" y="-110" width="60" height="175" as="geometry"/>
        </mxCell>
        <mxCell id="KZ4mBXxhlnbdgaMbsIXb-10" value="inventory" style="edgeStyle=orthogonalEdgeStyle;rounded=0;orthogonalLoop=1;jettySize=auto;html=1;exitX=0.5;exitY=0;exitDx=0;exitDy=0;entryX=1.001;entryY=0.163;entryDx=0;entryDy=0;entryPerimeter=0;" edge="1" parent="6wyxrHHf_I9BklUDtam6-1" source="KZ4mBXxhlnbdgaMbsIXb-7" target="85VXtthlD1fGDL5kLzPd-6">
          <mxGeometry relative="1" as="geometry">
            <Array as="points">
              <mxPoint x="1440" y="204"/>
            </Array>
          </mxGeometry>
        </mxCell>
        <mxCell id="pYXfFOGdg0F5nLQ-RAcg-9" style="edgeStyle=orthogonalEdgeStyle;rounded=0;orthogonalLoop=1;jettySize=auto;html=1;exitX=0.5;exitY=1;exitDx=0;exitDy=0;entryX=0.5;entryY=0;entryDx=0;entryDy=0;" edge="1" parent="6wyxrHHf_I9BklUDtam6-1" source="KZ4mBXxhlnbdgaMbsIXb-7" target="pYXfFOGdg0F5nLQ-RAcg-8">
          <mxGeometry relative="1" as="geometry"/>
        </mxCell>
        <mxCell id="O-fm7lQViK4v1r6Bbu7A-10" style="edgeStyle=orthogonalEdgeStyle;rounded=0;orthogonalLoop=1;jettySize=auto;html=1;exitX=0.75;exitY=1;exitDx=0;exitDy=0;entryX=0.5;entryY=0;entryDx=0;entryDy=0;" edge="1" parent="6wyxrHHf_I9BklUDtam6-1" source="KZ4mBXxhlnbdgaMbsIXb-7" target="pYXfFOGdg0F5nLQ-RAcg-7">
          <mxGeometry relative="1" as="geometry"/>
        </mxCell>
        <mxCell id="KZ4mBXxhlnbdgaMbsIXb-7" value="WMS" style="rounded=0;whiteSpace=wrap;html=1;" vertex="1" parent="6wyxrHHf_I9BklUDtam6-1">
          <mxGeometry x="1380" y="245" width="120" height="60" as="geometry"/>
        </mxCell>
        <mxCell id="KZ4mBXxhlnbdgaMbsIXb-12" value="credit card" style="rounded=0;whiteSpace=wrap;html=1;" vertex="1" parent="6wyxrHHf_I9BklUDtam6-1">
          <mxGeometry x="-55" y="160" width="110" height="60" as="geometry"/>
        </mxCell>
        <mxCell id="pYXfFOGdg0F5nLQ-RAcg-0" value="ApplePay" style="rounded=0;whiteSpace=wrap;html=1;" vertex="1" parent="6wyxrHHf_I9BklUDtam6-1">
          <mxGeometry x="-55" y="340" width="110" height="60" as="geometry"/>
        </mxCell>
        <mxCell id="pYXfFOGdg0F5nLQ-RAcg-7" value="pandora merchandise" style="rounded=0;whiteSpace=wrap;html=1;" vertex="1" parent="6wyxrHHf_I9BklUDtam6-1">
          <mxGeometry x="1510" y="440" width="120" height="60" as="geometry"/>
        </mxCell>
        <mxCell id="pYXfFOGdg0F5nLQ-RAcg-8" value="PGC" style="rounded=0;whiteSpace=wrap;html=1;" vertex="1" parent="6wyxrHHf_I9BklUDtam6-1">
          <mxGeometry x="1400" y="440" width="80" height="60" as="geometry"/>
        </mxCell>
        <mxCell id="P7eWk-2O3zi6pnJXQDkd-0" value="pfs sftp" style="rounded=0;whiteSpace=wrap;html=1;" vertex="1" parent="6wyxrHHf_I9BklUDtam6-1">
          <mxGeometry x="640" y="380" width="120" height="60" as="geometry"/>
        </mxCell>
        <mxCell id="bdvWYH8bgl_X668KNpvw-4" style="edgeStyle=orthogonalEdgeStyle;rounded=0;orthogonalLoop=1;jettySize=auto;html=1;entryX=1;entryY=0.5;entryDx=0;entryDy=0;" edge="1" parent="6wyxrHHf_I9BklUDtam6-1" source="bdvWYH8bgl_X668KNpvw-0" target="KZ4mBXxhlnbdgaMbsIXb-14">
          <mxGeometry relative="1" as="geometry"/>
        </mxCell>
        <mxCell id="bdvWYH8bgl_X668KNpvw-5" style="edgeStyle=orthogonalEdgeStyle;rounded=0;orthogonalLoop=1;jettySize=auto;html=1;exitX=0;exitY=0.25;exitDx=0;exitDy=0;entryX=1;entryY=0.5;entryDx=0;entryDy=0;" edge="1" parent="6wyxrHHf_I9BklUDtam6-1" source="bdvWYH8bgl_X668KNpvw-0" target="KZ4mBXxhlnbdgaMbsIXb-12">
          <mxGeometry relative="1" as="geometry"/>
        </mxCell>
        <mxCell id="bdvWYH8bgl_X668KNpvw-6" style="edgeStyle=orthogonalEdgeStyle;rounded=0;orthogonalLoop=1;jettySize=auto;html=1;exitX=0;exitY=0.75;exitDx=0;exitDy=0;entryX=1;entryY=0.5;entryDx=0;entryDy=0;" edge="1" parent="6wyxrHHf_I9BklUDtam6-1" source="bdvWYH8bgl_X668KNpvw-0" target="pYXfFOGdg0F5nLQ-RAcg-0">
          <mxGeometry relative="1" as="geometry"/>
        </mxCell>
        <mxCell id="bdvWYH8bgl_X668KNpvw-0" value="adyen" style="rounded=0;whiteSpace=wrap;html=1;shadow=0;glass=0;comic=0;" vertex="1" parent="6wyxrHHf_I9BklUDtam6-1">
          <mxGeometry x="120" y="238.5" width="70" height="83" as="geometry"/>
        </mxCell>
        <mxCell id="jv_dIJnP4hM5Pgxd0C4F-2" style="edgeStyle=orthogonalEdgeStyle;rounded=0;orthogonalLoop=1;jettySize=auto;html=1;exitX=0.5;exitY=0;exitDx=0;exitDy=0;entryX=0.5;entryY=1;entryDx=0;entryDy=0;" edge="1" parent="6wyxrHHf_I9BklUDtam6-1" source="jv_dIJnP4hM5Pgxd0C4F-0" target="bdvWYH8bgl_X668KNpvw-0">
          <mxGeometry relative="1" as="geometry"/>
        </mxCell>
        <mxCell id="jv_dIJnP4hM5Pgxd0C4F-0" value="financial service &lt;br&gt;manual&amp;nbsp;review&amp;nbsp;" style="rounded=0;whiteSpace=wrap;html=1;fillColor=#f8cecc;strokeColor=#b85450;" vertex="1" parent="6wyxrHHf_I9BklUDtam6-1">
          <mxGeometry x="95" y="420" width="120" height="60" as="geometry"/>
        </mxCell>
        <mxCell id="O-fm7lQViK4v1r6Bbu7A-7" style="edgeStyle=orthogonalEdgeStyle;rounded=0;orthogonalLoop=1;jettySize=auto;html=1;entryX=0;entryY=0.5;entryDx=0;entryDy=0;" edge="1" parent="6wyxrHHf_I9BklUDtam6-1" target="85VXtthlD1fGDL5kLzPd-10">
          <mxGeometry relative="1" as="geometry">
            <mxPoint x="842" y="600" as="sourcePoint"/>
          </mxGeometry>
        </mxCell>
        <mxCell id="O-fm7lQViK4v1r6Bbu7A-0" value="" style="rounded=0;whiteSpace=wrap;html=1;fillColor=none;" vertex="1" parent="6wyxrHHf_I9BklUDtam6-1">
          <mxGeometry x="640" y="520" width="201" height="340" as="geometry"/>
        </mxCell>
        <mxCell id="O-fm7lQViK4v1r6Bbu7A-1" value="order confirmation" style="rounded=0;whiteSpace=wrap;html=1;fillColor=none;" vertex="1" parent="6wyxrHHf_I9BklUDtam6-1">
          <mxGeometry x="656" y="535" width="165" height="45" as="geometry"/>
        </mxCell>
        <mxCell id="O-fm7lQViK4v1r6Bbu7A-2" value="back in stock" style="rounded=0;whiteSpace=wrap;html=1;fillColor=none;" vertex="1" parent="6wyxrHHf_I9BklUDtam6-1">
          <mxGeometry x="656" y="600" width="165" height="45" as="geometry"/>
        </mxCell>
        <mxCell id="O-fm7lQViK4v1r6Bbu7A-3" value="create account" style="rounded=0;whiteSpace=wrap;html=1;fillColor=none;" vertex="1" parent="6wyxrHHf_I9BklUDtam6-1">
          <mxGeometry x="656" y="663.5" width="165" height="45" as="geometry"/>
        </mxCell>
        <mxCell id="O-fm7lQViK4v1r6Bbu7A-4" value="reset password" style="rounded=0;whiteSpace=wrap;html=1;fillColor=none;" vertex="1" parent="6wyxrHHf_I9BklUDtam6-1">
          <mxGeometry x="656" y="727.5" width="165" height="45" as="geometry"/>
        </mxCell>
        <mxCell id="O-fm7lQViK4v1r6Bbu7A-5" value="forgot password" style="rounded=0;whiteSpace=wrap;html=1;fillColor=none;" vertex="1" parent="6wyxrHHf_I9BklUDtam6-1">
          <mxGeometry x="656" y="791.5" width="165" height="45" as="geometry"/>
        </mxCell>
        <mxCell id="wX7sTsC1IoLnyoUYT3rY-0" value="SCV - CRM" style="rounded=0;whiteSpace=wrap;html=1;" vertex="1" parent="6wyxrHHf_I9BklUDtam6-1">
          <mxGeometry x="360" y="660" width="180" height="80" as="geometry"/>
        </mxCell>
      </root>
    </mxGraphModel>
  </diagram>
</mxfile>
